<?xml version="1.0" standalone="no"?>
<!DOCTYPE svg PUBLIC "-//W3C//DTD SVG 1.1//EN" "http://www.w3.org/Graphics/SVG/1.1/DTD/svg11.dtd" >
<svg xmlns="http://www.w3.org/2000/svg">
<metadata></metadata>
<defs>
<font id="archermedium" horiz-adv-x="1591" >
<font-face units-per-em="2048" ascent="1638" descent="-410" />
<missing-glyph horiz-adv-x="464" />
<glyph unicode="&#xfb01;" horiz-adv-x="1167" d="M76 748v124h155v234q0 221 111 326q90 84 219 84q91 0 147 -44t56 -104q0 -43 -28.5 -72.5t-69.5 -29.5q-45 0 -74.5 36t-24.5 82l4 2q-15 3 -30 3q-64 0 -111 -58q-57 -67 -57 -192v-267h577v-749h148v-123h-430v123h141v625h-436v-625h164v-123h-447v123h141v625h-155z " />
<glyph unicode="&#xfb02;" horiz-adv-x="1173" d="M76 748v124h155v242q0 193 103 299q103 103 268 103q144 0 234 -84l36 75h89v-1384h147v-123h-434v123h145v625h-446v-625h166v-123h-449v123h141v625h-155zM373 872h446v250v25q-35 8 -57.5 35.5t-22.5 64.5t23 70l-8 10q-64 64 -158 64q-97 0 -156 -62 q-67 -67 -67 -203v-254z" />
<glyph unicode="&#xfb03;" horiz-adv-x="1755" d="M76 748v124h155v230q0 182 93 278q89 95 233 95q67 0 125 -23q98 -42 98 -129q0 -41 -24 -65.5t-64 -24.5q-43 0 -71.5 33t-28.5 80q-18 6 -37 6q-89 0 -135 -62q-47 -62 -47 -178v-240h446v234q0 221 111 326q90 84 219 84q91 0 147 -44t56 -104q0 -43 -29 -72.5 t-70 -29.5q-46 0 -74.5 36t-23.5 82q-25 5 -29 5q-55 0 -102 -50q-63 -67 -63 -200v-267h577v-749h148v-123h-431v123h142v625h-436v-625h163v-123h-442v123h137v625h-446v-625h166v-123h-449v123h141v625h-155z" />
<glyph unicode="&#xfb04;" horiz-adv-x="1761" d="M76 748v124h155v230q0 182 93 278q89 95 233 95q67 0 125 -23q98 -42 98 -129q0 -41 -24 -65.5t-64 -24.5q-43 0 -71.5 33t-28.5 82q-24 4 -37 4q-89 0 -135 -62q-47 -62 -47 -178v-240h446v242q0 193 103 299q100 103 268 103q143 0 233 -84l37 75h88v-1384h148v-123 h-434v123h145v625h-446v-625h165v-123h-444v123h137v625h-446v-625h166v-123h-449v123h141v625h-155zM961 872h446v250v25q-35 6 -57.5 34.5t-22.5 65.5t23 70l-9 10q-64 64 -157 64q-96 0 -158 -62q-65 -68 -65 -203v-254z" />
<glyph horiz-adv-x="2048" />
<glyph horiz-adv-x="2048" />
<glyph unicode="&#xd;" horiz-adv-x="2048" />
<glyph unicode=" "  horiz-adv-x="464" />
<glyph unicode="&#x09;" horiz-adv-x="464" />
<glyph unicode="&#xa0;" horiz-adv-x="464" />
<glyph unicode="!" horiz-adv-x="522" d="M143 102q0 50 34 85.5t83 35.5t84 -35.5t35 -85.5q0 -49 -34.5 -83.5t-84.5 -34.5q-49 0 -83 34t-34 84zM168 1346h184l-53 -973h-78z" />
<glyph unicode="&#x22;" horiz-adv-x="692" d="M74 1227q-13 64 15.5 104.5t80.5 40.5q54 0 82 -39.5t16 -105.5l-69 -367h-58zM422 1227q-13 64 15.5 104.5t80.5 40.5q54 0 82.5 -39.5t15.5 -105.5l-69 -367h-58z" />
<glyph unicode="#" horiz-adv-x="1062" d="M39 262v121h209l45 285h-191v120h209l39 252h129l-39 -252h260l41 252h129l-41 -252h193v-120h-211l-43 -285h190v-121h-208l-41 -262h-129l38 262h-260l-41 -262h-127l39 262h-190zM373 381h268l45 291h-268z" />
<glyph unicode="$" horiz-adv-x="952" d="M78 219q0 42 26 70t66 28q43 0 69.5 -25.5t26.5 -64.5q0 -24 -14 -59q43 -37 147 -49l29 364q-53 16 -91.5 30.5t-81 39t-69 52t-44 68.5t-17.5 91q0 117 96.5 192.5t247.5 81.5l12 146l113 -8l-12 -142q114 -14 192 -65.5t78 -124.5q0 -44 -24.5 -71.5t-63.5 -27.5 q-41 0 -68.5 27t-27.5 68q0 29 12 53q-40 22 -115 31l-24 -332q56 -18 96.5 -33.5t85.5 -42t73.5 -56t47 -73t18.5 -96.5q0 -72 -29.5 -128.5t-81.5 -90.5t-117 -52t-140 -20l-17 -217l-112 10l16 213q-127 17 -215 71.5t-88 141.5zM264 772q0 -54 44.5 -87.5t133.5 -63.5 l23 307q-90 -5 -145.5 -45.5t-55.5 -110.5zM498 113q99 3 162 46.5t63 125.5q0 62 -50 100.5t-147 69.5z" />
<glyph unicode="%" horiz-adv-x="1323" d="M102 809q0 104 72 177t176 73q103 0 175.5 -73t72.5 -177q0 -103 -72.5 -175.5t-175.5 -72.5q-104 0 -176 72.5t-72 175.5zM193 18q27 27 430 517l421 524l76 -62q-52 -57 -432 -520q-67 -82 -166.5 -205.5t-169.5 -210.5t-86 -106zM215 809q0 -62 38.5 -104.5 t96.5 -42.5t96.5 42.5t38.5 104.5t-38.5 104.5t-96.5 42.5t-96.5 -42.5t-38.5 -104.5zM727 233q0 103 71.5 175.5t174.5 72.5q104 0 176 -72.5t72 -175.5t-72 -176t-176 -73q-102 0 -174 73t-72 176zM840 231q0 -62 37.5 -104.5t95.5 -42.5q59 0 97 42.5t38 104.5 q0 63 -38 105.5t-97 42.5q-58 0 -95.5 -43t-37.5 -105z" />
<glyph unicode="&#x26;" horiz-adv-x="1267" d="M59 313q0 118 71 208t210 169q-82 93 -108.5 156.5t-26.5 138.5q0 54 21.5 107.5t60.5 98t102 72t139 27.5q127 0 212 -74.5t85 -191.5q0 -97 -65 -178t-221 -174q42 -45 123 -119q129 -123 217 -207q56 83 98 201h-117v121h359v-121h-121q-60 -181 -127 -283 q55 -52 127.5 -116t89.5 -78l-88 -97q-116 103 -211 191q-170 -182 -424 -182q-193 0 -299.5 96t-106.5 235zM209 317q0 -84 67.5 -146t188.5 -62q191 0 332 141l-226 211q-91 83 -153 147q-110 -67 -159.5 -135t-49.5 -156zM350 981q0 -50 22 -101t87 -128 q128 79 174.5 139t46.5 133q0 63 -43 105t-109 42q-78 0 -128 -54.5t-50 -135.5z" />
<glyph unicode="'" horiz-adv-x="344" d="M74 1227q-13 64 15.5 104.5t80.5 40.5q54 0 82 -39.5t16 -105.5l-69 -367h-58z" />
<glyph unicode="(" horiz-adv-x="745" d="M141 532q0 318 161 584.5t415 413.5l74 -107q-229 -141 -364.5 -374t-135.5 -517q0 -281 136 -514t364 -374l-74 -107q-254 145 -415 411t-161 584z" />
<glyph unicode=")" horiz-adv-x="745" d="M-45 -356q229 141 364.5 373.5t135.5 514.5q0 283 -136 516.5t-364 374.5l74 107q254 -147 414.5 -413.5t160.5 -584.5t-160.5 -584t-414.5 -411z" />
<glyph unicode="*" horiz-adv-x="829" d="M80 1196q12 37 51 45.5t80 -16.5l182 -107l-49 207q-11 47 9.5 81t60.5 34q41 0 61 -34t8 -81l-47 -207l182 107q41 25 80.5 16.5t51.5 -45.5q12 -39 -12 -69.5t-74 -34.5l-213 -19l157 -139q38 -32 41.5 -71t-28.5 -62q-36 -26 -71 -10.5t-54 61.5l-82 195l-80 -195 q-21 -47 -55 -61.5t-70 10.5q-33 23 -30 62t42 71l158 139l-213 19q-50 4 -74 34.5t-12 69.5z" />
<glyph unicode="+" horiz-adv-x="851" d="M86 492v124h274v279h129v-279h277v-124h-277v-279h-129v279h-274z" />
<glyph unicode="," horiz-adv-x="421" d="M2 -254q93 70 137.5 137t48.5 115q-44 8 -75 43t-31 80q0 49 36.5 84t86.5 35q57 0 95 -42.5t38 -117.5q0 -96 -72 -201t-225 -188z" />
<glyph unicode="-" horiz-adv-x="624" d="M72 498v143h481v-143h-481z" />
<glyph unicode="." horiz-adv-x="421" d="M86 113q0 54 35.5 91.5t89.5 37.5t89.5 -37.5t35.5 -91.5t-35.5 -91.5t-89.5 -37.5t-89.5 37.5t-35.5 91.5z" />
<glyph unicode="/" horiz-adv-x="952" d="M-45 -373l840 1893l125 -56l-840 -1892z" />
<glyph unicode="0" horiz-adv-x="1134" d="M96 520q0 233 132.5 385t338.5 152q205 0 339 -153t134 -384t-133.5 -383.5t-339.5 -152.5q-204 0 -337.5 153t-133.5 383zM244 520q0 -181 89.5 -296t233.5 -115q145 0 234.5 115t89.5 296t-89.5 296.5t-234.5 115.5q-144 0 -233.5 -115.5t-89.5 -296.5z" />
<glyph unicode="1" horiz-adv-x="837" d="M123 956l332 88h63v-921h242v-123h-631v123h246v766l-219 -55z" />
<glyph unicode="2" horiz-adv-x="1013" d="M76 72q29 69 72 129.5t101.5 112t110.5 89.5t125 84q63 41 95.5 64.5t71 58.5t55 70t16.5 76q0 78 -65.5 127t-176.5 49q-68 0 -126 -23.5t-87 -58.5l-6 -10q22 -11 36.5 -32.5t14.5 -45.5q0 -41 -28.5 -70.5t-69.5 -29.5q-45 0 -75.5 34t-30.5 90q0 57 38 113 q48 68 139.5 113t202.5 45q177 0 277 -88t100 -211q0 -50 -17.5 -95.5t-42.5 -79.5t-70 -71.5t-82 -62.5t-97 -62q-113 -69 -185.5 -129.5t-115.5 -136.5h518v176h127v-297h-807z" />
<glyph unicode="3" horiz-adv-x="1007" d="M72 16q0 51 32 87t78 36q40 0 67 -28t27 -66q0 -61 -51 -84l8 -12q36 -38 102.5 -59t145.5 -21q128 0 209.5 67.5t81.5 169.5q0 72 -38.5 128t-110.5 88q-95 45 -232 45h-45v120h51q133 0 236 58q125 74 125 186q0 95 -72 147t-190 52q-158 0 -222 -78l-6 -8 q23 -10 39.5 -34.5t16.5 -47.5q0 -40 -30.5 -67t-68.5 -27q-44 0 -76 34.5t-32 88.5q0 56 39 112q46 68 136.5 111t211.5 43q174 0 285.5 -94t111.5 -230q0 -76 -47 -144.5t-123 -111.5q-65 -36 -133 -45q64 -12 127 -41q87 -43 138.5 -117t51.5 -168q0 -163 -124 -263.5 t-312 -100.5q-121 0 -220.5 44t-147.5 116q-39 55 -39 114z" />
<glyph unicode="4" horiz-adv-x="1052" d="M35 180l659 883l107 -80l-553 -743h401v290l137 56v-346h230v-121h-230v-365h-137v365h-588z" />
<glyph unicode="5" horiz-adv-x="993" d="M86 -29q0 48 31 83.5t76 35.5q42 0 70 -26.5t28 -67.5q0 -46 -35 -74q0 -2 2 -2q64 -49 203 -49q132 0 215.5 80.5t83.5 204.5q0 122 -79.5 198t-215.5 76q-147 0 -275 -59l-63 37l76 632h635v-135h-525l-43 -383q98 31 209 31q187 0 307.5 -109t120.5 -288 q0 -178 -126 -294t-312 -116q-214 0 -324 98q-59 56 -59 127z" />
<glyph unicode="6" horiz-adv-x="1089" d="M106 549q0 157 29.5 286.5t79.5 216t117 146.5t140 86.5t151 26.5q77 0 148.5 -26t115.5 -71q53 -53 53 -116q0 -54 -33 -87.5t-76 -33.5q-45 0 -72.5 29t-27.5 71q0 40 27 64q-51 45 -148 45q-69 0 -132.5 -37.5t-114 -107t-82 -178.5t-35.5 -242q43 76 132.5 126 t196.5 50q182 0 302 -113.5t120 -277.5q0 -179 -124 -301.5t-314 -122.5q-191 0 -313 122q-140 143 -140 445zM262 385q0 -115 82 -197q85 -82 215 -82q132 0 212.5 84.5t80.5 215.5q0 116 -78 192t-205 76q-133 0 -220 -86t-87 -203z" />
<glyph unicode="7" horiz-adv-x="962" d="M63 717v323h805l29 -61l-578 -1229l-124 60l522 1112h-522v-205h-132z" />
<glyph unicode="8" horiz-adv-x="1032" d="M90 346q0 107 68 194t174 126q-97 41 -156 124.5t-59 165.5q0 153 114.5 253t282.5 100q170 0 284.5 -99.5t114.5 -253.5q0 -88 -59.5 -167.5t-157.5 -122.5q107 -40 176.5 -126.5t69.5 -193.5q0 -155 -120.5 -258.5t-307.5 -103.5q-186 0 -305 103.5t-119 258.5z M240 354q0 -104 78.5 -174.5t195.5 -70.5q120 0 198.5 70t78.5 175q0 107 -79 178.5t-198 71.5q-117 0 -195.5 -71.5t-78.5 -178.5zM264 950q0 -95 73.5 -162t176.5 -67q105 0 179.5 67t74.5 162q0 100 -72.5 167t-181.5 67q-107 0 -178.5 -67t-71.5 -167z" />
<glyph unicode="9" horiz-adv-x="1089" d="M90 633q0 180 124 302t314 122q193 0 312 -119q141 -144 141 -449q0 -157 -30.5 -284.5t-82 -211.5t-120.5 -141t-142.5 -81.5t-152.5 -24.5t-152.5 27t-116.5 75q-47 50 -47 113q0 54 32.5 87.5t74.5 33.5q46 0 74 -29.5t28 -70.5q0 -40 -27 -64q51 -45 148 -45 q153 0 259.5 144t115.5 397q-42 -73 -132.5 -120.5t-197.5 -47.5q-183 0 -302.5 112t-119.5 275zM238 633q0 -114 76.5 -188t203.5 -74q134 0 220.5 83t86.5 201q0 115 -82 197q-83 80 -215 80q-130 0 -210 -84t-80 -215z" />
<glyph unicode=":" horiz-adv-x="460" d="M106 111q0 53 36.5 90t88.5 37t88.5 -37t36.5 -90t-36.5 -90t-88.5 -37t-88.5 37t-36.5 90zM106 655q0 53 36.5 90t88.5 37t88.5 -37t36.5 -90t-36.5 -90t-88.5 -37t-88.5 37t-36.5 90z" />
<glyph unicode=";" horiz-adv-x="460" d="M25 -250q93 69 137.5 135t46.5 113q-43 8 -74 42.5t-31 78.5q0 47 36 82t85 35q57 0 95 -41.5t38 -114.5q0 -60 -26.5 -123t-95.5 -135t-173 -127zM106 655q0 53 36.5 90t88.5 37t88.5 -37t36.5 -90t-36.5 -90t-88.5 -37t-88.5 37t-36.5 90z" />
<glyph unicode="&#x3c;" horiz-adv-x="796" d="M84 510v68l514 348l68 -99l-418 -284l418 -283l-68 -98z" />
<glyph unicode="=" horiz-adv-x="851" d="M86 313v125h680v-125h-680zM86 643v125h680v-125h-680z" />
<glyph unicode="&#x3e;" horiz-adv-x="796" d="M131 260l418 283l-418 284l70 99l514 -348v-68l-514 -348z" />
<glyph unicode="?" horiz-adv-x="913" d="M43 1081q0 78 51 144t141.5 106.5t196.5 40.5q191 0 306.5 -102.5t115.5 -259.5q0 -140 -100 -249t-277 -149l-20 -239h-86l-33 329q179 35 271.5 114.5t92.5 189.5q0 107 -73 171t-199 64q-157 0 -223 -88q-8 -12 -10 -18q28 -7 45.5 -32t17.5 -54q0 -42 -27 -71.5 t-69 -29.5q-48 0 -84.5 37.5t-36.5 95.5zM299 102q0 50 34 85.5t83 35.5t82.5 -35.5t33.5 -85.5t-33.5 -84t-82.5 -34t-83 34t-34 84z" />
<glyph unicode="@" horiz-adv-x="1648" d="M92 264q0 161 45 311.5t127 270.5t190 210.5t240.5 139.5t272.5 49q272 0 434 -162.5t162 -425.5q0 -160 -52.5 -294t-144 -211.5t-201.5 -77.5q-93 0 -142 50t-46 122q-45 -79 -116.5 -125.5t-153.5 -46.5q-110 0 -181 77.5t-71 206.5q0 117 51 219.5t137.5 163 t185.5 60.5q88 0 145 -47t77 -121l45 160h131l-115 -459q-22 -78 -2.5 -120t76.5 -42q76 0 141.5 68t103 179.5t37.5 237.5q0 143 -59.5 256.5t-174.5 179.5t-267 66q-211 0 -390.5 -119.5t-285 -326t-105.5 -451.5q0 -149 62 -271t178.5 -193.5t265.5 -71.5q175 0 328 81 l39 -73q-171 -94 -369 -94q-176 0 -313 81t-211 223t-74 320zM602 371q0 -80 40.5 -128t115.5 -48q106 0 183 94.5t77 212.5q0 83 -45 128.5t-125 45.5q-103 0 -174.5 -91.5t-71.5 -213.5z" />
<glyph unicode="A" horiz-adv-x="1445" d="M37 0v135h129l403 1079h-153v134h614v-134h-153l403 -1079h129v-135h-451v133h158l-121 332h-551l-120 -332h163v-133h-450zM489 594h461l-229 629z" />
<glyph unicode="B" horiz-adv-x="1239" d="M96 0v135h172v1077h-172v136h541q116 0 205 -28t142 -76t79.5 -108t26.5 -130q0 -118 -66.5 -199.5t-179.5 -116.5q284 -74 284 -321q0 -164 -124 -266.5t-342 -102.5h-566zM420 133h246q146 0 228.5 67t82.5 177q0 120 -93 184t-261 64h-203v-492zM420 750h198 q156 0 238 65t82 176q0 105 -78.5 164t-226.5 59h-213v-464z" />
<glyph unicode="C" horiz-adv-x="1437" d="M115 668q0 202 95 365t251 251t338 88q103 0 197.5 -29t161 -76t106 -107t39.5 -120q0 -57 -34 -95t-85 -38q-47 0 -80 31.5t-33 77.5q0 28 15 51t36 31q-32 52 -119.5 93.5t-205.5 41.5q-150 0 -271.5 -77.5t-188.5 -206t-67 -279.5q0 -108 39.5 -208.5t108.5 -177.5 t170 -123t217 -46q232 0 418 174l90 -109q-100 -100 -233 -152.5t-275 -52.5q-152 0 -282.5 56t-219 151t-138.5 221t-50 265z" />
<glyph unicode="D" horiz-adv-x="1490" d="M96 0v135h172v1077h-172v136h506q352 0 563 -180.5t211 -479.5q0 -311 -207 -499.5t-573 -188.5h-500zM422 135h192q295 0 451 150t156 405q0 242 -168 382t-455 140h-176v-1077z" />
<glyph unicode="E" horiz-adv-x="1204" d="M96 0v135h172v1077h-172v136h979v-330h-145v196h-508v-462h440v-131h-440v-488h508v197h147v-330h-981z" />
<glyph unicode="F" horiz-adv-x="1161" d="M96 0v135h172v1077h-172v136h965v-330h-148v196h-491v-487h432v-131h-432v-461h186v-135h-512z" />
<glyph unicode="G" horiz-adv-x="1509" d="M115 664q0 156 56.5 290t152.5 224.5t223 142t266 51.5q109 0 206 -28.5t161.5 -73.5t101.5 -100t37 -109q0 -56 -32.5 -91.5t-82.5 -35.5q-47 0 -78.5 31t-31.5 77q0 51 34 78q-43 46 -128 79.5t-191 33.5q-156 0 -280 -75.5t-191.5 -205t-67.5 -288.5 q0 -121 41.5 -225.5t112 -176t164.5 -111.5t198 -40q216 0 400 129v286h-373v129h522v-655h-145v117q-189 -142 -420 -142q-128 0 -246 48t-209 134.5t-145.5 218.5t-54.5 288z" />
<glyph unicode="H" horiz-adv-x="1589" d="M96 0v135h172v1077h-172v136h502v-136h-176v-454h745v454h-176v136h502v-136h-172v-1077h172v-135h-502v135h176v488h-745v-488h176v-135h-502z" />
<glyph unicode="I" horiz-adv-x="712" d="M98 0v135h183v1077h-183v136h516v-136h-182v-1077h182v-135h-516z" />
<glyph unicode="J" horiz-adv-x="1083" d="M61 305q0 70 35.5 114t91.5 44q41 0 73 -30.5t32 -74.5q0 -34 -20.5 -60.5t-53.5 -33.5q5 -53 66 -100t157 -47q113 0 179 69q77 74 77 273v753h-206v136h520v-136h-162v-755q0 -252 -119 -371q-111 -111 -289 -111q-157 0 -269 96.5t-112 233.5z" />
<glyph unicode="K" horiz-adv-x="1382" d="M96 0v135h172v1077h-172v136h502v-134h-176v-587l584 587h-181v134h521v-136h-152l-438 -436l430 -641h170v-135h-269l-444 676l-221 -221v-320h176v-135h-502z" />
<glyph unicode="L" horiz-adv-x="1134" d="M96 0v135h172v1077h-172v136h512v-136h-186v-1079h467v207h145v-340h-938z" />
<glyph unicode="M" horiz-adv-x="1806" d="M86 0v135h176l49 1077h-180v136h328l440 -916l442 916h326v-136h-180l49 -1077h174v-135h-496v135h172l-34 942l-434 -887h-41l-435 887l-32 -942h170v-135h-494z" />
<glyph unicode="N" horiz-adv-x="1564" d="M96 0v135h172v1077h-172v136h305l779 -1026v890h-179v136h490v-136h-166v-1216l-84 -2l-825 1087v-946h176v-135h-496z" />
<glyph unicode="O" d="M115 672q0 195 88 355.5t245.5 252.5t352.5 92q144 0 270.5 -54.5t215.5 -147.5t140.5 -221.5t51.5 -272.5q0 -195 -88.5 -355.5t-246 -253t-351.5 -92.5q-193 0 -349 93t-242.5 252t-86.5 352zM270 676q0 -157 66.5 -285t187.5 -202t273 -74q228 0 376 159.5t148 397.5 q0 157 -66.5 285t-186.5 202t-271 74q-152 0 -273 -73.5t-187.5 -200.5t-66.5 -283z" />
<glyph unicode="P" horiz-adv-x="1189" d="M96 0v135h172v1077h-172v136h518q216 0 357 -116t141 -308q0 -205 -136.5 -322t-363.5 -117q-112 0 -190 4v-354h182v-135h-508zM422 623q103 -5 199 -5q156 0 246.5 82t90.5 222q0 134 -96.5 212t-245.5 78h-194v-589z" />
<glyph unicode="Q" d="M115 672q0 195 88 355.5t245.5 252.5t352.5 92q144 0 270.5 -54.5t215.5 -147.5t140.5 -221.5t51.5 -272.5q0 -249 -137.5 -429.5t-360.5 -230.5q48 -17 115 -59q81 -53 130.5 -74.5t108.5 -21.5q48 0 84.5 11t81.5 42l70 -123q-98 -76 -230 -76q-65 0 -133 23t-109 47 t-106.5 68.5t-87.5 58.5q-86 55 -203 74q-223 35 -370 170q-101 90 -159 226.5t-58 289.5zM270 676q0 -126 45 -236t125 -186q145 -139 357 -139q228 0 376 159.5t148 397.5q0 157 -66.5 285t-186.5 202t-271 74q-152 0 -273 -73.5t-187.5 -200.5t-66.5 -283z" />
<glyph unicode="R" horiz-adv-x="1265" d="M96 0v135h172v1077h-172v136h512q224 0 357 -105.5t133 -286.5q0 -134 -78.5 -229.5t-210.5 -138.5l283 -453h161v-135h-266l-332 551q-50 -4 -77 -4q-78 0 -156 4v-416h176v-135h-502zM422 684q82 -4 164 -4q159 0 258.5 71t99.5 201q0 125 -92 192.5t-252 67.5h-178 v-528z" />
<glyph unicode="S" horiz-adv-x="1124" d="M113 256q0 58 30.5 93.5t77.5 35.5q46 0 76.5 -29.5t30.5 -70.5q0 -44 -33 -90q36 -36 108 -60t160 -24q134 0 211.5 64t77.5 173q0 40 -15 74.5t-38.5 59.5t-63 49t-75.5 40.5t-89 36.5q-66 25 -111.5 45t-96 47.5t-83.5 57t-61 67.5t-41.5 85.5t-13.5 103.5 q0 157 114.5 257.5t301.5 100.5q108 0 201 -37.5t146.5 -98.5t53.5 -130q0 -55 -31 -87t-76 -32q-48 0 -78 31t-30 74q0 40 29 77q-27 30 -91 49t-129 19q-120 0 -190 -58.5t-70 -152.5q0 -42 15.5 -77t39 -60t65.5 -50t79.5 -41.5t97.5 -39.5q54 -21 92 -37.5t82 -39.5 t73.5 -44.5t59 -51.5t47 -62t28 -73.5t10.5 -89.5q0 -175 -124.5 -279t-318.5 -104q-189 0 -318.5 87.5t-129.5 191.5z" />
<glyph unicode="T" horiz-adv-x="1292" d="M86 1001v347h1120v-347h-145v218h-338v-1084h182v-135h-518v135h182v1084h-338v-218h-145z" />
<glyph unicode="U" horiz-adv-x="1454" d="M68 1212v136h497v-136h-178v-737q0 -178 88.5 -269t251.5 -91q165 0 253.5 89t88.5 267v741h-178v136h495v-136h-169v-741q0 -237 -131 -366.5t-361 -129.5q-231 0 -359 127.5t-128 362.5v747h-170z" />
<glyph unicode="V" horiz-adv-x="1425" d="M37 1212v136h455v-136h-154l379 -972l379 972h-162v136h455v-136h-132l-499 -1232h-88l-500 1232h-133z" />
<glyph unicode="W" horiz-adv-x="2027" d="M43 1212v136h487v-136h-170l283 -944l338 918h84l340 -916l274 942h-176v136h486v-136h-156l-377 -1232h-88l-348 927l-350 -927h-88l-383 1232h-156z" />
<glyph unicode="X" horiz-adv-x="1476" d="M82 0v135h141l426 555l-395 522h-148v136h469v-131h-147l313 -439l320 439h-158v131h469v-136h-145l-398 -520l424 -557h142v-135h-465v131h149l-342 473l-348 -473h158v-131h-465z" />
<glyph unicode="Y" horiz-adv-x="1314" d="M39 1212v136h453v-136h-140l307 -542l310 542h-146v136h455v-136h-145l-400 -671v-406h191v-135h-533v135h189v404l-398 673h-143z" />
<glyph unicode="Z" horiz-adv-x="1241" d="M92 0v74l826 1147h-644v-213h-139v340h1000v-74l-826 -1147h703v213h137v-340h-1057z" />
<glyph unicode="[" horiz-adv-x="722" d="M207 -410v1909h469v-131h-324v-1647h324v-131h-469z" />
<glyph unicode="\" horiz-adv-x="952" d="M33 1464l125 56l839 -1893l-125 -55z" />
<glyph unicode="]" horiz-adv-x="722" d="M47 -279h326v1647h-326v131h469v-1909h-469v131z" />
<glyph unicode="^" horiz-adv-x="913" d="M141 809l316 301l315 -301l-65 -78l-250 182l-250 -182z" />
<glyph unicode="_" horiz-adv-x="1091" d="M-12 -166h1116v-137h-1116v137z" />
<glyph unicode="`" horiz-adv-x="856" d="M166 1296q0 40 24 64t58 24q41 0 88 -47l246 -258l-37 -49l-309 176q-70 44 -70 90z" />
<glyph unicode="a" horiz-adv-x="1007" d="M92 233q0 119 94 192t242 73q64 0 138 -13.5t114 -27.5v121q0 74 -39 122q-63 70 -190 70q-76 0 -136 -37q13 -30 13 -51q0 -39 -25.5 -64.5t-66.5 -25.5q-39 0 -65 27t-26 67q0 81 87.5 142t236.5 61q188 0 281 -103q65 -71 65 -188v-475h141v-123h-272v111 q-57 -56 -137.5 -91.5t-165.5 -35.5q-127 0 -208 68.5t-81 180.5zM236 244q0 -65 47.5 -105.5t134.5 -40.5q141 0 262 121v146q-125 34 -236 34q-101 0 -154.5 -42.5t-53.5 -112.5z" />
<glyph unicode="b" horiz-adv-x="1116" d="M27 1376v123h280v-741q64 62 133.5 96.5t165.5 34.5q174 0 295 -127t121 -326q0 -190 -123.5 -321t-314.5 -131q-159 0 -287 106l-43 -92h-88v1378h-139zM307 205q127 -99 268 -99q128 0 215 91.5t87 236.5q0 148 -83 240t-212 92q-148 0 -275 -131v-430z" />
<glyph unicode="c" horiz-adv-x="968" d="M86 434q0 120 57.5 224.5t158.5 167.5t220 63q146 0 251.5 -80.5t105.5 -181.5q0 -50 -32 -84.5t-79 -34.5q-38 0 -66 26t-28 70q0 47 43 72q-17 39 -74 65.5t-123 26.5q-50 0 -100 -21.5t-92.5 -62t-69.5 -106.5t-27 -146q0 -143 92.5 -233t241.5 -90q143 0 291 96 l-12 -137q-125 -84 -295 -84q-198 0 -330.5 128.5t-132.5 321.5z" />
<glyph unicode="d" horiz-adv-x="1126" d="M90 430q0 124 52.5 228.5t152.5 167.5t227 63q158 0 271 -105v592h-164v123h305v-1376h141v-123h-278v123q-125 -139 -293 -139q-176 0 -295 124.5t-119 321.5zM238 428q0 -144 80 -232q80 -90 206 -90q144 0 269 132v428q-120 100 -263 100q-128 0 -210 -94.5 t-82 -243.5z" />
<glyph unicode="e" horiz-adv-x="993" d="M84 434q0 122 50.5 225t149.5 166.5t228 63.5q125 0 217.5 -58.5t137 -150.5t44.5 -203q0 -51 -8 -82h-672q15 -142 103 -214t233 -72q82 0 152.5 23.5t154.5 72.5l-12 -137q-137 -84 -313 -84q-209 0 -337 125t-128 325zM233 508h535q-8 119 -75.5 189.5t-188.5 70.5 q-103 0 -179.5 -69.5t-91.5 -190.5z" />
<glyph unicode="f" horiz-adv-x="651" d="M78 748v124h155v261q0 108 21.5 180.5t71.5 122.5q83 80 198 80q71 0 115.5 -32t44.5 -85q0 -42 -25.5 -69t-62.5 -27q-79 0 -107 86q-46 -10 -67 -41q-47 -56 -47 -183v-293h225v-124h-225v-625h170v-123h-453v123h141v625h-155z" />
<glyph unicode="g" horiz-adv-x="1138" d="M90 440q0 119 53 221t153 165t226 63q159 0 279 -113v96h276v-124h-141v-777q0 -158 -80 -254q-104 -127 -332 -127q-98 0 -176 27t-121 68q-45 45 -45 100q0 45 29.5 75.5t73.5 30.5q38 0 62 -25.5t24 -62.5q0 -32 -19 -57q59 -35 172 -35q149 0 219 86q52 65 52 168 v170q-60 -62 -129 -95.5t-162 -33.5q-173 0 -293.5 123t-120.5 311zM238 442q0 -138 81 -225.5t207 -87.5q149 0 269 127v410q-112 98 -260 98q-132 0 -214.5 -92t-82.5 -230z" />
<glyph unicode="h" horiz-adv-x="1138" d="M63 0v123h140v1253h-140v123h281v-784q68 78 151.5 126t172.5 48q149 0 221 -94q57 -75 57 -201v-471h141v-123h-419v123h137v442q0 92 -39 137q-44 56 -135 56q-147 0 -287 -154v-481h137v-123h-418z" />
<glyph unicode="i" horiz-adv-x="593" d="M88 0v123h148v625h-148v124h289v-749h147v-123h-436zM174 1208q0 46 34.5 80.5t80.5 34.5q44 0 77 -34.5t33 -80.5q0 -45 -33.5 -78.5t-78.5 -33.5q-46 0 -79.5 33t-33.5 79z" />
<glyph unicode="j" horiz-adv-x="530" d="M-106 -276q0 38 26 67t66 29q39 0 63.5 -26t24.5 -66q0 -2 -1 -10.5t-1 -12.5h12q93 0 129 121q23 77 23 178v744h-168v124h309v-852q0 -149 -39 -247q-71 -183 -258 -183q-86 0 -136 39.5t-50 94.5zM168 1208q0 46 34.5 80.5t80.5 34.5q44 0 77 -34.5t33 -80.5t-33 -79 t-79 -33t-79.5 33t-33.5 79z" />
<glyph unicode="k" horiz-adv-x="1073" d="M63 0v123h140v1253h-140v123h281v-1061l365 316h-170v118h493v-124h-155l-275 -236l270 -389h160v-123h-241l-291 434l-156 -131v-182h141v-121h-422z" />
<glyph unicode="l" horiz-adv-x="569" d="M68 0v123h147v1253h-147v123h288v-1376h148v-123h-436z" />
<glyph unicode="m" horiz-adv-x="1701" d="M84 0v123h139v625h-139v124h274v-161q63 78 146 128t172 50q155 0 217 -105q18 -30 27 -67q168 172 321 172q176 0 238 -127q30 -70 30 -168v-471h140v-123h-416v123h135v444q0 65 -16 111q-33 80 -138 80q-73 0 -139.5 -39t-136.5 -111v-485h135v-123h-416v123h140v444 q0 62 -17 111q-33 80 -139 80q-129 0 -276 -154v-481h135v-123h-416z" />
<glyph unicode="n" horiz-adv-x="1153" d="M84 0v123h139v625h-139v124h274v-161q67 78 153 128t175 50q163 0 232 -113q43 -73 43 -182v-471h139v-123h-418v123h137v442q0 74 -22 117q-37 76 -146 76q-146 0 -286 -154v-481h137v-123h-418z" />
<glyph unicode="o" horiz-adv-x="1077" d="M90 436q0 189 125.5 321t323.5 132t323 -131.5t125 -321.5t-125 -321t-323 -131q-200 0 -324.5 130t-124.5 322zM238 436q0 -146 84 -238t217 -92t217 92t84 238q0 145 -84 237.5t-217 92.5t-217 -92.5t-84 -237.5z" />
<glyph unicode="p" horiz-adv-x="1136" d="M63 -279h140v1027h-140v124h277v-124q127 141 293 141q175 0 293 -125.5t118 -323.5q0 -123 -52.5 -226.5t-152 -166.5t-225.5 -63q-152 0 -270 100v-363h168v-122h-449v122zM344 205q115 -96 262 -96q127 0 208 93t83 236q1 146 -79.5 236t-205.5 90q-142 0 -268 -129 v-430z" />
<glyph unicode="q" horiz-adv-x="1087" d="M90 436q0 190 123.5 321.5t314.5 131.5q161 0 287 -109l43 92h88v-1151h141v-122h-456v122h174v394q-63 -63 -132.5 -97t-166.5 -34q-174 0 -295 127t-121 325zM238 436q0 -146 82.5 -236.5t209.5 -90.5q151 0 275 127v432q-123 96 -268 96q-128 0 -213.5 -90.5 t-85.5 -237.5z" />
<glyph unicode="r" horiz-adv-x="778" d="M84 0v123h139v625h-139v124h274v-198q53 94 126 154.5t141 60.5q61 0 96 -34t35 -81q0 -42 -29 -73t-70 -31q-38 0 -65.5 21t-38.5 52q-49 -13 -102.5 -65.5t-85.5 -118.5v-436h163v-123h-444z" />
<glyph unicode="s" horiz-adv-x="894" d="M92 193q0 39 25 67.5t63 28.5q41 0 67.5 -25t26.5 -65q0 -23 -14 -54q25 -19 77.5 -34t117.5 -15q92 0 152.5 36.5t60.5 98.5q0 55 -50 85.5t-157 56.5q-71 18 -117.5 32.5t-93 36.5t-72.5 47.5t-42.5 62.5t-16.5 85q0 103 90.5 177.5t241.5 74.5q86 0 159.5 -24.5 t114.5 -65.5q45 -45 45 -101q0 -41 -24.5 -67.5t-61.5 -26.5q-40 0 -67 25.5t-27 64.5q0 29 10 49q-48 31 -154 31q-86 0 -138 -38t-52 -89q0 -28 13.5 -48t46 -36.5t67 -27.5t96.5 -27q62 -15 102.5 -27.5t86.5 -34t72.5 -47t44.5 -65t18 -88.5q0 -120 -101 -191t-247 -71 q-95 0 -183.5 28t-132.5 72q-47 47 -47 109z" />
<glyph unicode="t" horiz-adv-x="681" d="M33 748v124h162v211l139 56v-267h268v-124h-268v-521q0 -42 14 -67q23 -45 103 -45q73 0 163 53l-18 -135q-88 -49 -186 -49q-140 0 -193 102q-22 45 -22 121v541h-162z" />
<glyph unicode="u" horiz-adv-x="1132" d="M53 748v124h281v-567q0 -73 24 -117q39 -73 144 -73q137 0 286 153v480h-143v124h285v-749h139v-123h-276v162q-67 -78 -152.5 -128t-173.5 -50q-167 0 -234 116q-40 70 -40 179v469h-140z" />
<glyph unicode="v" horiz-adv-x="1069" d="M14 748v124h406v-120h-139l258 -576l256 576h-144v120h404v-124h-115l-367 -777h-77l-367 777h-115z" />
<glyph unicode="w" horiz-adv-x="1425" d="M14 748v124h404v-120h-139l157 -551l244 573h76l241 -573l158 551h-147v120h403v-124h-131l-238 -785h-77l-252 594l-254 -594h-76l-240 785h-129z" />
<glyph unicode="x" horiz-adv-x="1030" d="M41 0v123h119l278 319l-262 306h-121v124h381v-116h-110l190 -244l193 244h-115v116h379v-124h-121l-260 -302l280 -323h117v-123h-389v115h121l-209 264l-211 -264h127v-115h-387z" />
<glyph unicode="y" horiz-adv-x="1050" d="M12 748v124h408v-120h-137q16 -36 41.5 -94t79.5 -181t89.5 -205t34.5 -82l250 562h-143v120h401v-124h-118l-412 -885q-39 -80 -72 -125q-104 -148 -225 -148q-63 0 -107.5 32.5t-44.5 82.5q0 42 25 66t63 24q35 0 59 -22t34 -54q51 18 104 99q16 24 66 123l53 108 l-328 699h-121z" />
<glyph unicode="z" horiz-adv-x="921" d="M76 0v63l559 693h-399v-170h-125v286h729v-63l-559 -692h442v170h125v-287h-772z" />
<glyph unicode="{" horiz-adv-x="710" d="M106 477v127h39q106 0 176 45t70 119q0 40 -24 76t-72 84q-58 57 -87 91t-51 83t-22 104q0 140 121 227t348 93v-113q-169 -8 -248.5 -67.5t-79.5 -139.5q0 -42 31 -87.5t94 -112.5q67 -71 102.5 -126t35.5 -114q0 -73 -59 -136t-181 -89q122 -26 181 -89.5t59 -136.5 q0 -41 -21.5 -85.5t-47 -75.5t-69.5 -78q-63 -66 -94 -112.5t-31 -88.5q0 -80 79.5 -139.5t248.5 -67.5v-112q-227 6 -348 93t-121 226q0 79 37 137t123 142q48 48 72 83.5t24 75.5q0 74 -70 119t-176 45h-39z" />
<glyph unicode="|" horiz-adv-x="552" d="M213 -410v1909h127v-1909h-127z" />
<glyph unicode="}" horiz-adv-x="710" d="M106 -332q169 8 248.5 67.5t79.5 139.5q0 42 -31 88.5t-94 112.5q-67 71 -102 125.5t-35 113.5q0 73 59 136.5t181 89.5q-122 26 -181 89t-59 136q0 60 35 115t102 125q63 67 94 112.5t31 87.5q0 80 -79.5 139.5t-248.5 67.5v113q227 -6 347 -93t120 -227q0 -79 -36 -136 t-121 -142q-49 -48 -74 -84t-25 -76q0 -74 71 -119t177 -45h37v-127h-37q-106 0 -177 -45t-71 -119q0 -40 24.5 -75.5t74.5 -83.5q84 -84 120.5 -142t36.5 -137q0 -140 -120 -226.5t-347 -92.5v112z" />
<glyph unicode="~" horiz-adv-x="884" d="M98 434q9 103 67 170.5t132 67.5q54 0 95.5 -21t84.5 -59q65 -57 105 -57q35 0 59 31.5t35 88.5l110 -26q-7 -103 -65.5 -170.5t-132.5 -67.5q-90 0 -178 80q-68 57 -105 57q-74 0 -96 -120z" />
<glyph unicode="&#xa1;" horiz-adv-x="522" d="M143 1243q0 50 34 84.5t83 34.5q50 0 84.5 -35t34.5 -84q0 -50 -35 -85.5t-84 -35.5t-83 35.5t-34 85.5zM168 0l53 973h78l53 -973h-184z" />
<glyph unicode="&#xa2;" horiz-adv-x="1028" d="M92 522q0 111 56 210.5t155 163.5t217 73l19 217l112 -10l-18 -211q125 -20 212 -94t87 -158q0 -45 -32 -80t-77 -35q-36 0 -63 24.5t-27 67.5q0 15 11 38t32 36q-17 31 -60 54t-98 32l-59 -662h41q159 0 309 97l-12 -133q-120 -82 -307 -82h-39l-25 -287l-112 10l24 297 q-156 43 -251 162t-95 270zM238 520q0 -108 57.5 -190t159.5 -119l55 641q-113 -16 -192.5 -104t-79.5 -228z" />
<glyph unicode="&#xa3;" horiz-adv-x="980" d="M-27 -178q0 55 54 94t151 43q101 112 101 254q0 17 -3 35h-210v117h190l-20 59q-52 150 -52 254q0 157 103 268t274 111q134 0 230 -65.5t96 -155.5q0 -56 -29.5 -87.5t-69.5 -31.5t-65 26t-25 66q0 43 27 70q-46 57 -166 57q-110 0 -175 -76.5t-65 -181.5 q0 -109 46 -238q3 -10 12 -35.5t12 -39.5h354v-117h-335v-33q0 -152 -103 -258q92 -8 197 -41q124 -41 200 -41q62 0 98 25t72 90l101 -56q-43 -99 -106 -143.5t-160 -44.5q-110 0 -246 53q-103 41 -197 41h-31q-33 -46 -78 -70t-85 -24q-42 0 -69.5 22.5t-27.5 53.5z" />
<glyph unicode="&#xa5;" horiz-adv-x="1024" d="M37 924v116h375v-114h-115l215 -351l213 351h-117v114h373v-116h-127l-211 -330h215v-113h-280l-7 -10v-111h287v-112h-287v-135h164v-113h-450v113h164v135h-289v112h289v111l-7 10h-282v113h213l-211 330h-125z" />
<glyph unicode="&#xa7;" horiz-adv-x="931" d="M117 508q0 63 44 109.5t118 70.5q-109 56 -109 160q0 83 85.5 146t223.5 63q123 0 210 -48t87 -122q0 -38 -23 -63t-61 -25q-39 0 -63.5 23.5t-24.5 60.5q0 20 6 32q-18 13 -58 23t-77 10q-74 0 -116 -25t-42 -63q0 -40 51.5 -67.5t166.5 -59.5q139 -39 207.5 -84.5 t68.5 -126.5q0 -117 -160 -176q105 -56 105 -158q0 -87 -82.5 -147.5t-222.5 -60.5q-121 0 -209 47t-88 123q0 37 22.5 61.5t61.5 24.5t63.5 -23t24.5 -59q0 -20 -9 -35q19 -13 59 -23t77 -10q76 0 116.5 24.5t40.5 63.5q0 41 -47.5 66t-171.5 61q-134 37 -204 83t-70 124z M260 532q0 -42 47 -68t158 -54l67 -19q136 41 136 111q0 42 -47 68.5t-158 56.5l-68 18q-59 -18 -97 -48t-38 -65z" />
<glyph unicode="&#xa8;" horiz-adv-x="950" d="M180 1180q0 49 34.5 83.5t82.5 34.5q47 0 81 -34.5t34 -83.5q0 -48 -34 -82.5t-83 -34.5q-47 0 -81 35t-34 82zM537 1180q0 49 34 83.5t82 34.5q49 0 82 -34t33 -84q0 -47 -34 -82t-81 -35q-49 0 -82.5 34.5t-33.5 82.5z" />
<glyph unicode="&#xa9;" horiz-adv-x="1239" d="M86 520q0 147 68 270t189 195t269 72q149 0 270 -72t189 -195t68 -270t-68.5 -270t-189.5 -194.5t-269 -71.5t-269 71.5t-189 194t-68 270.5zM172 520q0 -194 126.5 -328.5t313.5 -134.5q188 0 315.5 135t127.5 328q0 195 -127 330t-316 135q-124 0 -225 -62t-158 -168.5 t-57 -234.5zM358 526q0 119 81 197t190 78q88 0 145 -40t57 -87q0 -25 -15 -42.5t-38 -17.5q-20 0 -34.5 15t-14.5 37q0 16 8 28q-27 35 -108 35q-78 0 -131.5 -58t-53.5 -141q0 -84 53.5 -142t139.5 -58t156 67l47 -53q-36 -42 -90.5 -65t-114.5 -23q-121 0 -199 76.5 t-78 193.5z" />
<glyph unicode="&#xaa;" horiz-adv-x="704" d="M78 981q0 71 56.5 114.5t146.5 43.5q74 0 145 -21v64q0 58 -39 86q-35 24 -94 24q-52 0 -74 -16q6 -12 6 -31q0 -25 -16 -41t-41 -16q-26 0 -41.5 16.5t-15.5 44.5q0 48 52.5 85.5t143.5 37.5q89 0 142 -35q71 -47 71 -145v-268h82v-80h-174v63q-77 -73 -178 -73 q-75 0 -123.5 39.5t-48.5 107.5zM96 610v90h506v-90h-506zM176 989q0 -37 26.5 -58.5t73.5 -21.5q84 0 150 66v84q-63 18 -133 18q-56 0 -86.5 -23.5t-30.5 -64.5z" />
<glyph unicode="&#xab;" horiz-adv-x="993" d="M61 563l353 344l88 -84l-254 -260l254 -260l-88 -84zM455 563l352 344l88 -84l-254 -260l254 -260l-88 -84z" />
<glyph unicode="&#xad;" horiz-adv-x="624" d="M72 498v143h481v-143h-481z" />
<glyph unicode="&#xae;" horiz-adv-x="802" d="M35 1053q0 154 106 260t260 106q153 0 260 -106.5t107 -259.5q0 -152 -107.5 -258.5t-259.5 -106.5q-153 0 -259.5 106t-106.5 259zM109 1053q0 -126 85 -212.5t207 -86.5q121 0 207 87t86 212q0 127 -85 214t-208 87q-122 0 -207 -87t-85 -214zM262 885v55h39v238h-39 v55h137q62 0 101 -27t39 -78q0 -66 -64 -94l49 -94h41v-55h-84l-69 131h-47v-76h43v-55h-146zM365 1071h32q76 0 76 53q0 54 -76 54h-32v-107z" />
<glyph unicode="&#xaf;" horiz-adv-x="937" d="M158 1096v129h622v-129h-622z" />
<glyph unicode="&#xb0;" horiz-adv-x="618" d="M45 1108q0 111 75 188.5t189 77.5q112 0 186 -77.5t74 -188.5t-74 -188.5t-186 -77.5q-114 0 -189 77.5t-75 188.5zM145 1108q0 -74 46.5 -124t117.5 -50q70 0 116 50t46 124t-46 123t-116 49q-72 0 -118 -49t-46 -123z" />
<glyph unicode="&#xb1;" horiz-adv-x="851" d="M86 37v125h680v-125h-680zM86 600v127h274v277h129v-277h277v-127h-277v-276h-129v276h-274z" />
<glyph unicode="&#xb2;" horiz-adv-x="722" d="M90 932q20 58 51.5 107.5t72.5 89.5t72 65.5t76 56.5q48 34 72 54t44 52t20 68q0 52 -41.5 86.5t-102.5 34.5q-50 0 -89 -19.5t-46 -37.5q15 -6 25 -22.5t10 -36.5q0 -28 -20 -48t-48 -20q-37 0 -56 25t-19 65q0 74 70 130t181 56q102 0 174 -60t72 -153q0 -43 -13 -77.5 t-43.5 -65.5t-54 -49t-69.5 -49q-159 -103 -209 -213h311v121h93v-209h-502q-2 0 -9.5 12.5t-14.5 24.5z" />
<glyph unicode="&#xb3;" horiz-adv-x="722" d="M86 1038q0 32 21.5 56t52.5 24q30 0 48.5 -19.5t18.5 -49.5q0 -32 -20 -45q16 -16 54 -32t89 -16q69 0 116.5 37t47.5 92q0 59 -51.5 96.5t-149.5 37.5h-45v90h49q80 0 130.5 35.5t50.5 93.5q0 52 -41.5 80t-104.5 28q-43 0 -74.5 -12t-44.5 -27q21 -17 21 -45t-20 -47.5 t-48 -19.5q-30 0 -51.5 23t-21.5 59q0 57 65.5 106t177.5 49q107 0 178.5 -54t71.5 -136q0 -63 -48.5 -112t-119.5 -64q75 -15 131 -66t56 -121q0 -93 -79.5 -152t-195.5 -59q-108 0 -186 49.5t-78 120.5z" />
<glyph unicode="&#xb4;" horiz-adv-x="856" d="M272 1079l248 258q44 47 88 47q34 0 58 -24t24 -64q0 -47 -69 -90l-310 -176z" />
<glyph unicode="&#xb6;" horiz-adv-x="1179" d="M68 715q0 136 105 223.5t263 87.5h664v-125h-162v-776h162v-125h-688v121h163v274q-35 -2 -145 -2q-159 0 -260.5 87.5t-101.5 234.5zM696 121h119v784h-119v-784z" />
<glyph unicode="&#xb7;" horiz-adv-x="536" d="M141 520q0 54 36.5 91.5t90.5 37.5q52 0 88.5 -37.5t36.5 -91.5t-36.5 -91.5t-88.5 -37.5q-54 0 -90.5 37.5t-36.5 91.5z" />
<glyph unicode="&#xb8;" horiz-adv-x="860" d="M236 -350l30 65q90 -39 180 -39q39 0 62.5 16.5t23.5 43.5q0 63 -108 63q-6 0 -21 -2t-16 -2l-39 33l70 217l61 -10l-6 -133q92 -4 142.5 -47.5t50.5 -108.5t-53.5 -109.5t-147.5 -44.5q-116 0 -229 58z" />
<glyph unicode="&#xb9;" horiz-adv-x="722" d="M119 1561l258 67h53v-649h193v-96h-494v96h195v532l-183 -43z" />
<glyph unicode="&#xba;" horiz-adv-x="718" d="M88 1102q0 113 76 192.5t196 79.5t195.5 -78.5t75.5 -193.5q0 -112 -75.5 -191.5t-195.5 -79.5q-121 0 -196.5 79.5t-75.5 191.5zM117 610v90h485v-90h-485zM188 1102q0 -82 48 -135.5t124 -53.5q75 0 122.5 53.5t47.5 135.5q0 83 -47.5 136.5t-122.5 53.5 q-76 0 -124 -53t-48 -137z" />
<glyph unicode="&#xbb;" horiz-adv-x="993" d="M100 303l254 260l-254 260l88 84l353 -344l-353 -344zM492 303l253 260l-253 260l88 84l352 -344l-352 -344z" />
<glyph unicode="&#xbc;" horiz-adv-x="1628" d="M96 1253l258 68h54v-649h192v-97h-494v97h195v532l-182 -43zM412 20l403 658q260 425 393 655l78 -49l-399 -647q-282 -468 -398 -664zM932 268l393 496l76 -62l-330 -405h229v141l97 41v-178h121v-88h-121v-127h94v-88h-328v86h137v131h-342z" />
<glyph unicode="&#xbd;" horiz-adv-x="1628" d="M90 1253l258 68h53v-649h193v-97h-494v97h195v532l-182 -43zM387 20l404 658q260 425 393 655l78 -49l-400 -647q-224 -371 -397 -664zM993 47q20 58 51.5 107.5t73 90t72.5 66t76 56.5q71 50 103 86t32 88t-41.5 86.5t-102.5 34.5q-50 0 -89 -20t-46 -38q15 -6 25 -22.5 t10 -36.5q0 -28 -19.5 -48t-47.5 -20q-37 0 -56.5 25t-19.5 65q0 74 70.5 130.5t181.5 56.5q102 0 173.5 -60t71.5 -153q0 -43 -13.5 -78t-43 -65.5t-54 -49.5t-69.5 -49q-159 -103 -209 -213h312v121h92v-209h-502q-2 0 -9.5 12t-14.5 24z" />
<glyph unicode="&#xbe;" horiz-adv-x="1628" d="M115 731q0 33 21.5 56.5t51.5 23.5t49 -20t19 -50q0 -32 -20 -45q16 -16 54 -31.5t89 -15.5q69 0 116.5 37t47.5 92q0 59 -51.5 96t-149.5 37h-45v90h49q80 0 130 35.5t50 93.5q0 52 -41 80.5t-104 28.5q-43 0 -74.5 -12t-44.5 -27q21 -17 21 -45t-20 -48t-48 -20 q-30 0 -52 23t-22 59q0 57 66 106.5t178 49.5q107 0 178.5 -54t71.5 -136q0 -63 -48.5 -112.5t-119.5 -64.5q75 -15 130.5 -65.5t55.5 -120.5q0 -94 -79 -152.5t-195 -58.5q-108 0 -186 49.5t-78 120.5zM420 20l403 658q277 453 394 655l77 -49l-399 -647 q-224 -371 -397 -664zM928 268l393 496l76 -62l-330 -405h229v141l97 41v-178h120v-88h-120v-127h94v-88h-328v86h137v131h-342z" />
<glyph unicode="&#xbf;" horiz-adv-x="913" d="M59 338q0 139 100 248t277 149l21 240h86l32 -330q-179 -35 -271.5 -114t-92.5 -189q0 -107 73 -171.5t199 -64.5q160 0 224 89q1 2 4.5 8t5.5 8q-30 9 -47 33.5t-17 54.5q0 42 27.5 71t69.5 29q48 0 84 -37.5t36 -95.5q0 -77 -51 -143q-51 -67 -141 -107.5t-197 -40.5 q-191 0 -306.5 103t-115.5 260zM381 1245q0 50 34 84.5t83 34.5t83.5 -34.5t34.5 -84.5t-34.5 -85.5t-83.5 -35.5t-83 35.5t-34 85.5z" />
<glyph unicode="&#xc0;" horiz-adv-x="1445" d="M37 0v135h129l403 1079h-153v134h614v-134h-153l403 -1079h129v-135h-451v133h158l-121 332h-551l-120 -332h163v-133h-450zM401 1735q0 40 24 64t58 24q41 0 88 -47l246 -258l-37 -50l-309 177q-70 44 -70 90zM489 594h461l-229 629z" />
<glyph unicode="&#xc1;" horiz-adv-x="1445" d="M37 0v135h129l403 1079h-153v134h614v-134h-153l403 -1079h129v-135h-451v133h158l-121 332h-551l-120 -332h163v-133h-450zM489 594h461l-229 629zM623 1518l247 258q44 47 88 47q34 0 58 -24t24 -64q0 -47 -69 -90l-309 -177z" />
<glyph unicode="&#xc2;" horiz-adv-x="1445" d="M37 0v135h129l403 1079h-153v134h614v-134h-153l403 -1079h129v-135h-451v133h158l-121 332h-551l-120 -332h163v-133h-450zM406 1538l315 301l315 -301l-63 -76l-252 191l-252 -191zM489 594h461l-229 629z" />
<glyph unicode="&#xc3;" horiz-adv-x="1445" d="M37 0v135h129l403 1079h-153v134h614v-134h-153l403 -1079h129v-135h-451v133h158l-121 332h-551l-120 -332h163v-133h-450zM383 1518q7 103 65 172t130 69q54 0 95 -21t87 -59q66 -55 104 -55q72 0 94 123l111 -25q-7 -104 -65 -172.5t-132 -68.5q-91 0 -180 78 q-68 57 -104 57t-60.5 -32.5t-33.5 -90.5zM489 594h461l-229 629z" />
<glyph unicode="&#xc4;" horiz-adv-x="1445" d="M37 0v135h129l403 1079h-153v134h614v-134h-153l403 -1079h129v-135h-451v133h158l-121 332h-551l-120 -332h163v-133h-450zM426 1618q0 49 34.5 84t82.5 35q47 0 80.5 -35t33.5 -84q0 -48 -33.5 -82.5t-82.5 -34.5q-47 0 -81 35t-34 82zM489 594h461l-229 629zM782 1618 q0 49 34.5 84t82.5 35q49 0 82 -34.5t33 -84.5q0 -47 -34 -82t-81 -35q-49 0 -83 34.5t-34 82.5z" />
<glyph unicode="&#xc5;" horiz-adv-x="1445" d="M37 0v135h129l403 1079h-153v134h149q-69 66 -69 153q0 88 66 151.5t159 63.5t159 -63.5t66 -151.5q0 -90 -69 -153h153v-134h-153l403 -1079h129v-135h-451v133h158l-121 332h-551l-120 -332h163v-133h-450zM489 594h461l-229 629zM608 1489q0 -52 32 -87.5t81 -35.5 q50 0 82.5 35.5t32.5 87.5q0 53 -32.5 89t-82.5 36q-49 0 -81 -36t-32 -89z" />
<glyph unicode="&#xc6;" horiz-adv-x="1816" d="M-10 0v135h162l534 1077h-149v136h1151v-330h-146v196h-508v-462h441v-131h-441v-488h508v197h148v-330h-967v135h158v330h-416l-164 -332h145v-133h-456zM526 594h355v620h-50z" />
<glyph unicode="&#xc7;" horiz-adv-x="1437" d="M115 668q0 202 95 365t251 251t338 88q103 0 197.5 -29t161 -76t106 -107t39.5 -120q0 -57 -34 -95t-85 -38q-47 0 -80 31.5t-33 77.5q0 28 15 51t36 31q-32 52 -119.5 93.5t-205.5 41.5q-150 0 -271.5 -77.5t-188.5 -206t-67 -279.5q0 -108 39.5 -208.5t108.5 -177.5 t170 -123t217 -46q232 0 418 174l90 -109q-100 -100 -233 -152.5t-275 -52.5h-6l-2 -73q92 -4 142 -47.5t50 -108.5t-53.5 -109.5t-147.5 -44.5q-116 0 -229 58l31 65q90 -39 180 -39q39 0 62.5 16.5t23.5 43.5q0 63 -108 63q-6 0 -21 -2t-16 -2l-39 33l49 152 q-180 19 -319.5 117.5t-213 248t-73.5 322.5z" />
<glyph unicode="&#xc8;" horiz-adv-x="1204" d="M96 0v135h172v1077h-172v136h979v-330h-145v196h-508v-462h440v-131h-440v-488h508v197h147v-330h-981zM272 1735q0 40 24 64t58 24q41 0 88 -47l246 -258l-37 -50l-309 177q-70 44 -70 90z" />
<glyph unicode="&#xc9;" horiz-adv-x="1204" d="M96 0v135h172v1077h-172v136h979v-330h-145v196h-508v-462h440v-131h-440v-488h508v197h147v-330h-981zM494 1518l247 258q44 47 88 47q34 0 58 -24t24 -64q0 -47 -69 -90l-310 -177z" />
<glyph unicode="&#xca;" horiz-adv-x="1204" d="M96 0v135h172v1077h-172v136h979v-330h-145v196h-508v-462h440v-131h-440v-488h508v197h147v-330h-981zM276 1538l316 301l315 -301l-63 -76l-252 191l-252 -191z" />
<glyph unicode="&#xcb;" horiz-adv-x="1204" d="M96 0v135h172v1077h-172v136h979v-330h-145v196h-508v-462h440v-131h-440v-488h508v197h147v-330h-981zM297 1618q0 49 34.5 84t82.5 35q47 0 80.5 -35t33.5 -84q0 -48 -33.5 -82.5t-82.5 -34.5q-47 0 -81 35t-34 82zM653 1618q0 49 34.5 84t82.5 35q49 0 82 -34.5 t33 -84.5q0 -47 -34 -82t-81 -35q-49 0 -83 34.5t-34 82.5z" />
<glyph unicode="&#xcc;" horiz-adv-x="712" d="M39 1735q0 40 24 64t58 24q41 0 88 -47l246 -258l-37 -50l-309 177q-70 44 -70 90zM98 0v135h183v1077h-183v136h516v-136h-182v-1077h182v-135h-516z" />
<glyph unicode="&#xcd;" horiz-adv-x="712" d="M98 0v135h183v1077h-183v136h516v-136h-182v-1077h182v-135h-516zM258 1518l248 258q44 47 88 47q34 0 58 -24t24 -64q0 -46 -70 -90l-309 -177z" />
<glyph unicode="&#xce;" horiz-adv-x="712" d="M41 1538l315 301l316 -301l-64 -76l-252 191l-252 -191zM98 0v135h183v1077h-183v136h516v-136h-182v-1077h182v-135h-516z" />
<glyph unicode="&#xcf;" horiz-adv-x="712" d="M61 1618q0 49 34.5 84t82.5 35q47 0 81 -35t34 -84q0 -48 -34 -82.5t-83 -34.5q-47 0 -81 35t-34 82zM98 0v135h183v1077h-183v136h516v-136h-182v-1077h182v-135h-516zM418 1618q0 49 34.5 84t82.5 35q49 0 81.5 -34.5t32.5 -84.5q0 -48 -33.5 -82.5t-80.5 -34.5 q-49 0 -83 34.5t-34 82.5z" />
<glyph unicode="&#xd0;" horiz-adv-x="1503" d="M111 0v135h172v492h-150v127h150v458h-172v136h503q350 0 562.5 -181t212.5 -479q0 -204 -91 -359t-267 -242t-415 -87h-505zM434 135h193q295 0 450.5 150t155.5 405q0 242 -168 382t-455 140h-176v-458h307v-127h-307v-492z" />
<glyph unicode="&#xd1;" horiz-adv-x="1564" d="M96 0v135h172v1077h-172v136h305l779 -1026v890h-179v136h490v-136h-166v-1216l-84 -2l-825 1087v-946h176v-135h-496zM440 1518q7 103 65 172t130 69q54 0 95 -21t87 -59q66 -55 105 -55q72 0 94 123l110 -25q-7 -104 -64.5 -172.5t-131.5 -68.5q-91 0 -180 78 q-68 57 -105 57q-36 0 -60.5 -32.5t-33.5 -90.5z" />
<glyph unicode="&#xd2;" d="M115 672q0 195 88 355.5t245.5 252.5t352.5 92q144 0 270.5 -54.5t215.5 -147.5t140.5 -221.5t51.5 -272.5q0 -195 -88.5 -355.5t-246 -253t-351.5 -92.5q-193 0 -349 93t-242.5 252t-86.5 352zM270 676q0 -157 66.5 -285t187.5 -202t273 -74q228 0 376 159.5t148 397.5 q0 157 -66.5 285t-186.5 202t-271 74q-152 0 -273 -73.5t-187.5 -200.5t-66.5 -283zM475 1735q0 40 24 64t58 24q41 0 88 -47l246 -258l-37 -50l-309 177q-70 44 -70 90z" />
<glyph unicode="&#xd3;" d="M115 672q0 195 88 355.5t245.5 252.5t352.5 92q144 0 270.5 -54.5t215.5 -147.5t140.5 -221.5t51.5 -272.5q0 -195 -88.5 -355.5t-246 -253t-351.5 -92.5q-193 0 -349 93t-242.5 252t-86.5 352zM270 676q0 -157 66.5 -285t187.5 -202t273 -74q228 0 376 159.5t148 397.5 q0 157 -66.5 285t-186.5 202t-271 74q-152 0 -273 -73.5t-187.5 -200.5t-66.5 -283zM696 1518l248 258q44 47 88 47q34 0 58 -24t24 -64q0 -46 -70 -90l-309 -177z" />
<glyph unicode="&#xd4;" d="M115 672q0 195 88 355.5t245.5 252.5t352.5 92q144 0 270.5 -54.5t215.5 -147.5t140.5 -221.5t51.5 -272.5q0 -195 -88.5 -355.5t-246 -253t-351.5 -92.5q-193 0 -349 93t-242.5 252t-86.5 352zM270 676q0 -157 66.5 -285t187.5 -202t273 -74q228 0 376 159.5t148 397.5 q0 157 -66.5 285t-186.5 202t-271 74q-152 0 -273 -73.5t-187.5 -200.5t-66.5 -283zM479 1538l316 301l315 -301l-63 -76l-252 191l-252 -191z" />
<glyph unicode="&#xd5;" d="M115 672q0 195 88 355.5t245.5 252.5t352.5 92q144 0 270.5 -54.5t215.5 -147.5t140.5 -221.5t51.5 -272.5q0 -195 -88.5 -355.5t-246 -253t-351.5 -92.5q-193 0 -349 93t-242.5 252t-86.5 352zM270 676q0 -157 66.5 -285t187.5 -202t273 -74q228 0 376 159.5t148 397.5 q0 157 -66.5 285t-186.5 202t-271 74q-152 0 -273 -73.5t-187.5 -200.5t-66.5 -283zM457 1518q7 104 64.5 172.5t129.5 68.5q54 0 95.5 -21t87.5 -59q66 -55 104 -55q72 0 94 123l111 -25q-7 -104 -65 -172.5t-132 -68.5q-91 0 -180 78q-68 57 -104 57t-61 -32.5t-34 -90.5z " />
<glyph unicode="&#xd6;" d="M115 672q0 195 88 355.5t245.5 252.5t352.5 92q144 0 270.5 -54.5t215.5 -147.5t140.5 -221.5t51.5 -272.5q0 -195 -88.5 -355.5t-246 -253t-351.5 -92.5q-193 0 -349 93t-242.5 252t-86.5 352zM270 676q0 -157 66.5 -285t187.5 -202t273 -74q228 0 376 159.5t148 397.5 q0 157 -66.5 285t-186.5 202t-271 74q-152 0 -273 -73.5t-187.5 -200.5t-66.5 -283zM500 1618q0 49 34.5 84t81.5 35t81 -35t34 -84q0 -48 -34 -82.5t-83 -34.5q-47 0 -80.5 34.5t-33.5 82.5zM856 1618q0 49 34.5 84t82.5 35q49 0 81.5 -34.5t32.5 -84.5q0 -48 -33.5 -82.5 t-80.5 -34.5q-49 0 -83 34.5t-34 82.5z" />
<glyph unicode="&#xd7;" horiz-adv-x="851" d="M119 772l92 92l215 -221l213 221l90 -92l-215 -217l215 -221l-90 -92l-215 221l-213 -219l-90 90l215 219z" />
<glyph unicode="&#xd8;" d="M115 672q0 195 88 355.5t245.5 252.5t352.5 92q224 0 399 -129l162 189l96 -84l-164 -189q88 -95 136.5 -219.5t48.5 -263.5q0 -195 -88.5 -355.5t-246 -253t-351.5 -92.5q-230 0 -410 134l-164 -193l-96 84l168 193q-84 95 -130 218t-46 261zM270 676q0 -230 125 -383 l717 842q-135 98 -315 98q-152 0 -273 -73.5t-187.5 -200.5t-66.5 -283zM475 217q130 -102 322 -102q228 0 376 159.5t148 397.5q0 231 -129 385z" />
<glyph unicode="&#xd9;" horiz-adv-x="1454" d="M68 1212v136h497v-136h-178v-737q0 -178 88.5 -269t251.5 -91q165 0 253.5 89t88.5 267v741h-178v136h495v-136h-169v-741q0 -237 -131 -366.5t-361 -129.5q-231 0 -359 127.5t-128 362.5v747h-170zM408 1735q0 40 23.5 64t57.5 24q42 0 89 -47l245 -258l-37 -50 l-309 177q-69 43 -69 90z" />
<glyph unicode="&#xda;" horiz-adv-x="1454" d="M68 1212v136h497v-136h-178v-737q0 -178 88.5 -269t251.5 -91q165 0 253.5 89t88.5 267v741h-178v136h495v-136h-169v-741q0 -237 -131 -366.5t-361 -129.5q-231 0 -359 127.5t-128 362.5v747h-170zM627 1518l247 258q44 47 89 47q34 0 57.5 -24t23.5 -64q0 -47 -69 -90 l-309 -177z" />
<glyph unicode="&#xdb;" horiz-adv-x="1454" d="M68 1212v136h497v-136h-178v-737q0 -178 88.5 -269t251.5 -91q165 0 253.5 89t88.5 267v741h-178v136h495v-136h-169v-741q0 -237 -131 -366.5t-361 -129.5q-231 0 -359 127.5t-128 362.5v747h-170zM410 1538l315 301l315 -301l-63 -76l-252 191l-252 -191z" />
<glyph unicode="&#xdc;" horiz-adv-x="1454" d="M68 1212v136h497v-136h-178v-737q0 -178 88.5 -269t251.5 -91q165 0 253.5 89t88.5 267v741h-178v136h495v-136h-169v-741q0 -237 -131 -366.5t-361 -129.5q-231 0 -359 127.5t-128 362.5v747h-170zM432 1618q0 49 34.5 84t82.5 35q47 0 81 -35t34 -84q0 -48 -34 -82.5 t-83 -34.5q-47 0 -81 35t-34 82zM788 1618q0 49 34.5 84t82.5 35q49 0 82 -34.5t33 -84.5q0 -47 -34 -82t-81 -35q-49 0 -83 34.5t-34 82.5z" />
<glyph unicode="&#xdd;" horiz-adv-x="1314" d="M39 1212v136h453v-136h-140l307 -542l310 542h-146v136h455v-136h-145l-400 -671v-406h191v-135h-533v135h189v404l-398 673h-143zM557 1518l248 258q44 47 88 47q34 0 58 -24t24 -64q0 -46 -70 -90l-309 -177z" />
<glyph unicode="&#xde;" horiz-adv-x="1210" d="M96 0v135h172v1077h-172v136h500v-129h-174v-154q31 2 217 2q208 0 340.5 -101t132.5 -278q0 -186 -129 -289.5t-346 -103.5q-137 0 -215 4v-170h182v-129h-508zM422 428q82 -4 225 -4q142 0 226.5 68t84.5 192q0 123 -87 188.5t-224 65.5q-159 0 -225 -4v-506z" />
<glyph unicode="&#xdf;" horiz-adv-x="1142" d="M76 748v124h155v256q0 143 60 240q93 148 291 148q141 0 234 -87.5t93 -220.5q0 -87 -33 -153.5t-100 -130.5q-52 -51 -71 -84.5t-19 -73.5q0 -41 34.5 -75.5t117.5 -80.5q75 -43 123 -83t82 -103t34 -139q0 -139 -92 -220t-231 -81q-112 0 -177 51.5t-65 116.5 q0 41 26.5 68.5t63.5 27.5q36 0 63 -24.5t27 -61.5q0 -14 -14 -49q22 -15 70 -15q85 0 138.5 48.5t53.5 134.5q0 69 -42 117.5t-128 97.5q-113 62 -165 118t-52 148q0 62 27 114t88 113q54 54 77 105t23 112q0 77 -58 131t-141 54q-111 0 -166 -99q-30 -58 -30 -145v-1147 h-283v123h141v625h-155z" />
<glyph unicode="&#xe0;" horiz-adv-x="1007" d="M92 233q0 119 94 192t242 73q64 0 138 -13.5t114 -27.5v121q0 74 -39 122q-63 70 -190 70q-76 0 -136 -37q13 -30 13 -51q0 -39 -25.5 -64.5t-66.5 -25.5q-39 0 -65 27t-26 67q0 81 87.5 142t236.5 61q188 0 281 -103q65 -71 65 -188v-475h141v-123h-272v111 q-57 -56 -137.5 -91.5t-165.5 -35.5q-127 0 -208 68.5t-81 180.5zM172 1296q0 40 24 64t58 24q41 0 88 -47l246 -258l-37 -49l-309 176q-70 44 -70 90zM236 244q0 -65 47.5 -105.5t134.5 -40.5q141 0 262 121v146q-125 34 -236 34q-101 0 -154.5 -42.5t-53.5 -112.5z" />
<glyph unicode="&#xe1;" horiz-adv-x="1007" d="M92 233q0 119 94 192t242 73q64 0 138 -13.5t114 -27.5v121q0 74 -39 122q-63 70 -190 70q-76 0 -136 -37q13 -30 13 -51q0 -39 -25.5 -64.5t-66.5 -25.5q-39 0 -65 27t-26 67q0 81 87.5 142t236.5 61q188 0 281 -103q65 -71 65 -188v-475h141v-123h-272v111 q-57 -56 -137.5 -91.5t-165.5 -35.5q-127 0 -208 68.5t-81 180.5zM236 244q0 -65 47.5 -105.5t134.5 -40.5q141 0 262 121v146q-125 34 -236 34q-101 0 -154.5 -42.5t-53.5 -112.5zM393 1079l248 258q44 47 88 47q34 0 58 -24t24 -64q0 -46 -70 -90l-309 -176z" />
<glyph unicode="&#xe2;" horiz-adv-x="1007" d="M92 233q0 119 94 192t242 73q64 0 138 -13.5t114 -27.5v121q0 74 -39 122q-63 70 -190 70q-76 0 -136 -37q13 -30 13 -51q0 -39 -25.5 -64.5t-66.5 -25.5q-39 0 -65 27t-26 67q0 81 87.5 142t236.5 61q188 0 281 -103q65 -71 65 -188v-475h141v-123h-272v111 q-57 -56 -137.5 -91.5t-165.5 -35.5q-127 0 -208 68.5t-81 180.5zM176 1100l316 301l315 -301l-64 -76l-251 190l-252 -190zM236 244q0 -65 47.5 -105.5t134.5 -40.5q141 0 262 121v146q-125 34 -236 34q-101 0 -154.5 -42.5t-53.5 -112.5z" />
<glyph unicode="&#xe3;" horiz-adv-x="1007" d="M92 233q0 119 94 192t242 73q64 0 138 -13.5t114 -27.5v121q0 74 -39 122q-63 70 -190 70q-76 0 -136 -37q13 -30 13 -51q0 -39 -25.5 -64.5t-66.5 -25.5q-39 0 -65 27t-26 67q0 81 87.5 142t236.5 61q188 0 281 -103q65 -71 65 -188v-475h141v-123h-272v111 q-57 -56 -137.5 -91.5t-165.5 -35.5q-127 0 -208 68.5t-81 180.5zM154 1079q7 104 64.5 173t129.5 69q54 0 95 -21t87 -59q66 -55 105 -55q72 0 94 123l111 -25q-7 -104 -65 -173t-132 -69q-91 0 -180 78q-69 58 -105 58t-60.5 -32.5t-33.5 -90.5zM236 244 q0 -65 47.5 -105.5t134.5 -40.5q141 0 262 121v146q-125 34 -236 34q-101 0 -154.5 -42.5t-53.5 -112.5z" />
<glyph unicode="&#xe4;" horiz-adv-x="1007" d="M92 233q0 119 94 192t242 73q64 0 138 -13.5t114 -27.5v121q0 74 -39 122q-63 70 -190 70q-76 0 -136 -37q13 -30 13 -51q0 -39 -25.5 -64.5t-66.5 -25.5q-39 0 -65 27t-26 67q0 81 87.5 142t236.5 61q188 0 281 -103q65 -71 65 -188v-475h141v-123h-272v111 q-57 -56 -137.5 -91.5t-165.5 -35.5q-127 0 -208 68.5t-81 180.5zM197 1180q0 49 34 83.5t82 34.5q47 0 81 -34.5t34 -83.5q0 -48 -34 -82.5t-83 -34.5q-47 0 -80.5 34.5t-33.5 82.5zM236 244q0 -65 47.5 -105.5t134.5 -40.5q141 0 262 121v146q-125 34 -236 34 q-101 0 -154.5 -42.5t-53.5 -112.5zM553 1180q0 49 34.5 83.5t82.5 34.5q49 0 81.5 -34t32.5 -84q0 -48 -33.5 -82.5t-80.5 -34.5q-49 0 -83 34.5t-34 82.5z" />
<glyph unicode="&#xe5;" horiz-adv-x="1007" d="M92 233q0 119 94 192t242 73q64 0 138 -13.5t114 -27.5v121q0 74 -39 122q-63 70 -190 70q-76 0 -136 -37q13 -30 13 -51q0 -39 -25.5 -64.5t-66.5 -25.5q-39 0 -65 27t-26 67q0 81 87.5 142t236.5 61q188 0 281 -103q65 -71 65 -188v-475h141v-123h-272v111 q-57 -56 -137.5 -91.5t-165.5 -35.5q-127 0 -208 68.5t-81 180.5zM236 244q0 -65 47.5 -105.5t134.5 -40.5q141 0 262 121v146q-125 34 -236 34q-101 0 -154.5 -42.5t-53.5 -112.5zM266 1239q0 95 64.5 161t158.5 66q95 0 160.5 -66t65.5 -161t-65.5 -161t-160.5 -66 q-94 0 -158.5 66t-64.5 161zM377 1239q0 -52 31.5 -87.5t80.5 -35.5q50 0 82.5 35.5t32.5 87.5t-32.5 87.5t-82.5 35.5q-49 0 -80.5 -35.5t-31.5 -87.5z" />
<glyph unicode="&#xe6;" horiz-adv-x="1560" d="M92 233q0 119 94 192t242 73q64 0 138 -13.5t114 -27.5v112q0 77 -41 125q-61 74 -188 74q-80 0 -136 -35q13 -30 13 -51q0 -39 -25.5 -64.5t-66.5 -25.5q-39 0 -65 27t-26 67q0 81 87.5 142t236.5 61q174 0 258 -105q29 -41 37 -65q55 80 137 125t186 45 q122 0 213.5 -58.5t136 -150.5t44.5 -203q0 -47 -6 -82h-672q15 -145 101.5 -215.5t234.5 -70.5q81 0 151 23.5t154 72.5l-12 -137q-137 -84 -308 -84q-248 0 -368 172q-82 -85 -180.5 -128.5t-188.5 -43.5q-131 0 -213 68.5t-82 180.5zM236 244q0 -65 48 -105.5t136 -40.5 q150 0 295 131q-25 58 -35 136q-124 34 -236 34q-101 0 -154.5 -42.5t-53.5 -112.5zM805 508h534q-8 119 -76.5 189.5t-189.5 70.5q-102 0 -177.5 -69.5t-90.5 -190.5z" />
<glyph unicode="&#xe7;" horiz-adv-x="1024" d="M86 434q0 120 57.5 224.5t158.5 167.5t220 63q146 0 251.5 -80.5t105.5 -181.5q0 -50 -32 -84.5t-79 -34.5q-38 0 -66 26t-28 70q0 47 43 72q-17 39 -74 65.5t-123 26.5q-50 0 -100 -21.5t-92.5 -62t-69.5 -106.5t-27 -146q0 -143 92.5 -233t241.5 -90q143 0 291 96 l-12 -137q-125 -84 -295 -84h-4l-4 -82q92 -4 142 -47.5t50 -108.5t-53.5 -109.5t-147.5 -44.5q-116 0 -229 58l31 65q90 -39 180 -39q39 0 62.5 16.5t23.5 43.5q0 63 -108 63q-6 0 -21 -2t-16 -2l-39 33l51 164q-167 25 -274 147.5t-107 294.5z" />
<glyph unicode="&#xe8;" horiz-adv-x="993" d="M84 434q0 122 50.5 225t149.5 166.5t228 63.5q125 0 217.5 -58.5t137 -150.5t44.5 -203q0 -51 -8 -82h-672q15 -142 103 -214t233 -72q82 0 152.5 23.5t154.5 72.5l-12 -137q-137 -84 -313 -84q-209 0 -337 125t-128 325zM182 1296q0 40 24 64t58 24q41 0 88 -47 l246 -258l-37 -49l-309 176q-70 44 -70 90zM233 508h535q-8 119 -75.5 189.5t-188.5 70.5q-103 0 -179.5 -69.5t-91.5 -190.5z" />
<glyph unicode="&#xe9;" horiz-adv-x="993" d="M84 434q0 122 50.5 225t149.5 166.5t228 63.5q125 0 217.5 -58.5t137 -150.5t44.5 -203q0 -51 -8 -82h-672q15 -142 103 -214t233 -72q82 0 152.5 23.5t154.5 72.5l-12 -137q-137 -84 -313 -84q-209 0 -337 125t-128 325zM233 508h535q-8 119 -75.5 189.5t-188.5 70.5 q-103 0 -179.5 -69.5t-91.5 -190.5zM403 1079l248 258q44 47 88 47q34 0 58 -24t24 -64q0 -47 -69 -90l-310 -176z" />
<glyph unicode="&#xea;" horiz-adv-x="993" d="M84 434q0 122 50.5 225t149.5 166.5t228 63.5q125 0 217.5 -58.5t137 -150.5t44.5 -203q0 -51 -8 -82h-672q15 -142 103 -214t233 -72q82 0 152.5 23.5t154.5 72.5l-12 -137q-137 -84 -313 -84q-209 0 -337 125t-128 325zM186 1100l316 301l315 -301l-63 -76l-252 190 l-252 -190zM233 508h535q-8 119 -75.5 189.5t-188.5 70.5q-103 0 -179.5 -69.5t-91.5 -190.5z" />
<glyph unicode="&#xeb;" horiz-adv-x="993" d="M84 434q0 122 50.5 225t149.5 166.5t228 63.5q125 0 217.5 -58.5t137 -150.5t44.5 -203q0 -51 -8 -82h-672q15 -142 103 -214t233 -72q82 0 152.5 23.5t154.5 72.5l-12 -137q-137 -84 -313 -84q-209 0 -337 125t-128 325zM207 1180q0 49 34.5 83.5t82.5 34.5 q47 0 80.5 -34.5t33.5 -83.5q0 -48 -33.5 -82.5t-82.5 -34.5q-47 0 -81 35t-34 82zM233 508h535q-8 119 -75.5 189.5t-188.5 70.5q-103 0 -179.5 -69.5t-91.5 -190.5zM563 1180q0 49 34.5 83.5t82.5 34.5q49 0 82 -34t33 -84q0 -47 -34 -82t-81 -35q-49 0 -83 34.5t-34 82.5 z" />
<glyph unicode="&#xec;" horiz-adv-x="593" d="M-25 1296q0 40 24 64t58 24q41 0 88 -47l246 -258l-37 -49l-309 176q-70 44 -70 90zM88 0v123h148v625h-148v124h289v-749h147v-123h-436z" />
<glyph unicode="&#xed;" horiz-adv-x="593" d="M88 0v123h148v625h-148v124h289v-749h147v-123h-436zM197 1079l247 258q44 47 88 47q34 0 58 -24t24 -64q0 -47 -69 -90l-309 -176z" />
<glyph unicode="&#xee;" horiz-adv-x="593" d="M-20 1100l315 301l315 -301l-63 -76l-252 190l-252 -190zM88 0v123h148v625h-148v124h289v-749h147v-123h-436z" />
<glyph unicode="&#xef;" horiz-adv-x="593" d="M0 1180q0 49 34.5 83.5t82.5 34.5q47 0 80.5 -34.5t33.5 -83.5q0 -48 -33.5 -82.5t-82.5 -34.5q-47 0 -81 35t-34 82zM88 0v123h148v625h-148v124h289v-749h147v-123h-436zM356 1180q0 49 34.5 83.5t82.5 34.5q49 0 82 -34t33 -84q0 -47 -34 -82t-81 -35q-49 0 -83 34.5 t-34 82.5z" />
<glyph unicode="&#xf0;" horiz-adv-x="1081" d="M90 414q0 183 126 307.5t323 124.5q91 0 176.5 -43.5t136.5 -114.5q-32 254 -223 473l-238 -213l-78 92l232 207q-120 111 -232 135q-5 -34 -31 -59t-65 -25t-67.5 29.5t-28.5 75.5t39 78t98 32q85 0 166 -40q107 -48 217 -148l201 176l78 -90l-197 -174 q122 -139 195 -325.5t73 -401.5q0 -272 -145 -414q-118 -112 -305 -112q-198 0 -324.5 124t-126.5 306zM231 414q0 -134 87 -221t223 -87q128 0 215 87q45 45 70.5 107.5t25.5 127.5q0 125 -88 210t-223 85q-136 0 -223 -87.5t-87 -221.5z" />
<glyph unicode="&#xf1;" horiz-adv-x="1153" d="M84 0v123h139v625h-139v124h274v-161q67 78 153 128t175 50q163 0 232 -113q43 -73 43 -182v-471h139v-123h-418v123h137v442q0 74 -22 117q-37 76 -146 76q-146 0 -286 -154v-481h137v-123h-418zM252 1079q7 104 64.5 173t129.5 69q54 0 95.5 -21t87.5 -59 q66 -55 104 -55q72 0 94 123l111 -25q-7 -104 -65 -173t-132 -69q-91 0 -180 78q-69 58 -104 58q-36 0 -61 -32.5t-34 -90.5z" />
<glyph unicode="&#xf2;" horiz-adv-x="1077" d="M90 436q0 189 125.5 321t323.5 132t323 -131.5t125 -321.5t-125 -321t-323 -131q-200 0 -324.5 130t-124.5 322zM219 1296q0 40 24 64t58 24q41 0 88 -47l246 -258l-37 -49l-309 176q-70 44 -70 90zM238 436q0 -146 84 -238t217 -92t217 92t84 238q0 145 -84 237.5 t-217 92.5t-217 -92.5t-84 -237.5z" />
<glyph unicode="&#xf3;" horiz-adv-x="1077" d="M90 436q0 189 125.5 321t323.5 132t323 -131.5t125 -321.5t-125 -321t-323 -131q-200 0 -324.5 130t-124.5 322zM238 436q0 -146 84 -238t217 -92t217 92t84 238q0 145 -84 237.5t-217 92.5t-217 -92.5t-84 -237.5zM438 1079l248 258q44 47 88 47q34 0 58 -24t24 -64 q0 -46 -70 -90l-309 -176z" />
<glyph unicode="&#xf4;" horiz-adv-x="1077" d="M90 436q0 189 125.5 321t323.5 132t323 -131.5t125 -321.5t-125 -321t-323 -131q-200 0 -324.5 130t-124.5 322zM221 1100l316 301l315 -301l-64 -76l-251 190l-252 -190zM238 436q0 -146 84 -238t217 -92t217 92t84 238q0 145 -84 237.5t-217 92.5t-217 -92.5 t-84 -237.5z" />
<glyph unicode="&#xf5;" horiz-adv-x="1077" d="M90 436q0 189 125.5 321t323.5 132t323 -131.5t125 -321.5t-125 -321t-323 -131q-200 0 -324.5 130t-124.5 322zM199 1079q7 104 64.5 173t129.5 69q54 0 95 -21t87 -59q66 -55 105 -55q72 0 94 123l111 -25q-7 -104 -65 -173t-132 -69q-91 0 -180 78q-69 58 -105 58 t-60.5 -32.5t-33.5 -90.5zM238 436q0 -146 84 -238t217 -92t217 92t84 238q0 145 -84 237.5t-217 92.5t-217 -92.5t-84 -237.5z" />
<glyph unicode="&#xf6;" horiz-adv-x="1077" d="M90 436q0 189 125.5 321t323.5 132t323 -131.5t125 -321.5t-125 -321t-323 -131q-200 0 -324.5 130t-124.5 322zM238 436q0 -146 84 -238t217 -92t217 92t84 238q0 145 -84 237.5t-217 92.5t-217 -92.5t-84 -237.5zM244 1180q0 49 34 83.5t82 34.5q47 0 81 -34.5 t34 -83.5q0 -48 -34 -82.5t-83 -34.5q-47 0 -80.5 34.5t-33.5 82.5zM600 1180q0 49 34.5 83.5t82.5 34.5q49 0 81.5 -34t32.5 -84q0 -48 -33.5 -82.5t-80.5 -34.5q-49 0 -83 34.5t-34 82.5z" />
<glyph unicode="&#xf7;" horiz-adv-x="851" d="M86 492v124h680v-124h-680zM326 272q0 41 30 72t70 31t70 -31t30 -72t-30 -70.5t-70 -29.5q-41 0 -70.5 29.5t-29.5 70.5zM326 836q0 41 30 71.5t70 30.5t70 -30.5t30 -71.5t-30 -72t-70 -31q-41 0 -70.5 30.5t-29.5 72.5z" />
<glyph unicode="&#xf8;" horiz-adv-x="1077" d="M90 436q0 189 125.5 321t323.5 132q136 0 249 -76l103 121l92 -78l-104 -123q108 -127 108 -297q0 -190 -125 -321t-323 -131q-135 0 -244 69l-102 -119l-93 78l103 121q-113 129 -113 303zM238 436q0 -130 59 -213l414 490q-71 53 -172 53q-133 0 -217 -92.5t-84 -237.5 zM371 152q71 -46 168 -46q133 0 217 92t84 238q0 122 -58 205z" />
<glyph unicode="&#xf9;" horiz-adv-x="1132" d="M53 748v124h281v-567q0 -73 24 -117q39 -73 144 -73q137 0 286 153v480h-143v124h285v-749h139v-123h-276v162q-67 -78 -152.5 -128t-173.5 -50q-167 0 -234 116q-40 70 -40 179v469h-140zM231 1296q0 40 24 64t58 24q41 0 88 -47l246 -258l-37 -49l-309 176 q-70 44 -70 90z" />
<glyph unicode="&#xfa;" horiz-adv-x="1132" d="M53 748v124h281v-567q0 -73 24 -117q39 -73 144 -73q137 0 286 153v480h-143v124h285v-749h139v-123h-276v162q-67 -78 -152.5 -128t-173.5 -50q-167 0 -234 116q-40 70 -40 179v469h-140zM451 1079l247 258q44 47 88 47q34 0 58 -24t24 -64q0 -47 -69 -90l-310 -176z " />
<glyph unicode="&#xfb;" horiz-adv-x="1132" d="M53 748v124h281v-567q0 -73 24 -117q39 -73 144 -73q137 0 286 153v480h-143v124h285v-749h139v-123h-276v162q-67 -78 -152.5 -128t-173.5 -50q-167 0 -234 116q-40 70 -40 179v469h-140zM233 1100l316 301l315 -301l-63 -76l-252 190l-252 -190z" />
<glyph unicode="&#xfc;" horiz-adv-x="1132" d="M53 748v124h281v-567q0 -73 24 -117q39 -73 144 -73q137 0 286 153v480h-143v124h285v-749h139v-123h-276v162q-67 -78 -152.5 -128t-173.5 -50q-167 0 -234 116q-40 70 -40 179v469h-140zM254 1180q0 49 34.5 83.5t82.5 34.5q47 0 80.5 -34.5t33.5 -83.5 q0 -48 -33.5 -82.5t-82.5 -34.5q-47 0 -81 35t-34 82zM610 1180q0 49 34.5 83.5t82.5 34.5q49 0 82 -34t33 -84q0 -47 -34 -82t-81 -35q-49 0 -83 34.5t-34 82.5z" />
<glyph unicode="&#xfd;" horiz-adv-x="1050" d="M12 748v124h408v-120h-137q16 -36 41.5 -94t79.5 -181t89.5 -205t34.5 -82l250 562h-143v120h401v-124h-118l-412 -885q-39 -80 -72 -125q-104 -148 -225 -148q-63 0 -107.5 32.5t-44.5 82.5q0 42 25 66t63 24q35 0 59 -22t34 -54q51 18 104 99q16 24 66 123l53 108 l-328 699h-121zM426 1079l248 258q44 47 88 47q34 0 58 -24t24 -64q0 -46 -70 -90l-309 -176z" />
<glyph unicode="&#xfe;" horiz-adv-x="1077" d="M0 1376v123h283v-743q61 62 129 96.5t159 34.5q175 0 293.5 -124.5t118.5 -322.5q0 -123 -52.5 -226.5t-152 -166.5t-225.5 -63q-145 0 -270 96v-359h168v-122h-449v122h139v1655h-141zM283 207q118 -98 262 -98q127 0 208 93t83 236q1 146 -79.5 235t-205.5 89 q-144 0 -268 -127v-428z" />
<glyph unicode="&#xff;" horiz-adv-x="1050" d="M12 748v124h408v-120h-137q16 -36 41.5 -94t79.5 -181t89.5 -205t34.5 -82l250 562h-143v120h401v-124h-118l-412 -885q-39 -80 -72 -125q-104 -148 -225 -148q-63 0 -107.5 32.5t-44.5 82.5q0 42 25 66t63 24q35 0 59 -22t34 -54q51 18 104 99q16 24 66 123l53 108 l-328 699h-121zM229 1180q0 49 34.5 83.5t82.5 34.5q47 0 81 -34.5t34 -83.5q0 -48 -34 -82.5t-83 -34.5q-47 0 -81 35t-34 82zM586 1180q0 49 34 83.5t82 34.5q49 0 82 -34t33 -84q0 -47 -34 -82t-81 -35q-49 0 -82.5 34.5t-33.5 82.5z" />
<glyph unicode="&#x152;" horiz-adv-x="1906" d="M115 659q0 309 201 499t542 190h920v-330h-146v196h-508v-462h441v-131h-441v-488h508v197h146v-330h-918q-217 0 -386.5 81.5t-264 231.5t-94.5 346zM270 657q0 -240 163.5 -381t430.5 -141h107v1077h-123q-276 0 -427 -151t-151 -404z" />
<glyph unicode="&#x153;" horiz-adv-x="1726" d="M90 436q0 189 125 321t320 132q128 0 224.5 -60.5t145.5 -160.5q51 101 144 161t211 60q93 0 169 -33.5t125 -91t75 -131.5t26 -156q0 -47 -6 -82h-672q15 -142 103 -214t233 -72q82 0 151 23.5t154 72.5l-12 -137q-137 -84 -310 -84q-135 0 -237.5 59.5t-153.5 159.5 q-51 -100 -147 -159.5t-223 -59.5q-197 0 -321 130.5t-124 321.5zM238 436q0 -146 84 -238t217 -92t217 92t84 238q0 145 -84 237.5t-217 92.5t-217 -92.5t-84 -237.5zM979 508h534q-8 119 -76 189.5t-188 70.5q-103 0 -179 -69.5t-91 -190.5z" />
<glyph unicode="&#x178;" horiz-adv-x="1314" d="M39 1212v136h453v-136h-140l307 -542l310 542h-146v136h455v-136h-145l-400 -671v-406h191v-135h-533v135h189v404l-398 673h-143zM360 1618q0 49 34.5 84t82.5 35q47 0 81 -35t34 -84q0 -48 -34 -82.5t-83 -34.5q-47 0 -81 35t-34 82zM717 1618q0 49 34.5 84t82.5 35 q49 0 81.5 -34.5t32.5 -84.5q0 -48 -33.5 -82.5t-80.5 -34.5q-49 0 -83 34.5t-34 82.5z" />
<glyph unicode="&#x2c6;" horiz-adv-x="950" d="M160 1100l315 301l316 -301l-64 -76l-252 190l-252 -190z" />
<glyph unicode="&#x2dc;" horiz-adv-x="976" d="M145 1079q7 104 65 173t130 69q54 0 95 -21t87 -59q66 -55 105 -55q72 0 94 123l110 -25q-7 -104 -65 -173t-131 -69q-91 0 -180 78q-69 58 -105 58t-60.5 -32.5t-33.5 -90.5z" />
<glyph unicode="&#x2000;" horiz-adv-x="919" />
<glyph unicode="&#x2001;" horiz-adv-x="1839" />
<glyph unicode="&#x2002;" horiz-adv-x="919" />
<glyph unicode="&#x2003;" horiz-adv-x="1839" />
<glyph unicode="&#x2004;" horiz-adv-x="613" />
<glyph unicode="&#x2005;" horiz-adv-x="459" />
<glyph unicode="&#x2006;" horiz-adv-x="306" />
<glyph unicode="&#x2007;" horiz-adv-x="306" />
<glyph unicode="&#x2008;" horiz-adv-x="229" />
<glyph unicode="&#x2009;" horiz-adv-x="367" />
<glyph unicode="&#x200a;" horiz-adv-x="102" />
<glyph unicode="&#x2010;" horiz-adv-x="624" d="M72 498v143h481v-143h-481z" />
<glyph unicode="&#x2011;" horiz-adv-x="624" d="M72 498v143h481v-143h-481z" />
<glyph unicode="&#x2012;" horiz-adv-x="624" d="M72 498v143h481v-143h-481z" />
<glyph unicode="&#x2013;" horiz-adv-x="960" d="M45 500v139h870v-139h-870z" />
<glyph unicode="&#x2014;" horiz-adv-x="1544" d="M45 500v139h1454v-139h-1454z" />
<glyph unicode="&#x2018;" horiz-adv-x="423" d="M66 1004q0 45 16 95t49 104.5t93 108.5t138 95l37 -55q-91 -66 -135.5 -141t-46.5 -128q44 -8 75.5 -42.5t31.5 -77.5q0 -50 -36.5 -85.5t-86.5 -35.5q-58 0 -96.5 42.5t-38.5 119.5z" />
<glyph unicode="&#x2019;" horiz-adv-x="423" d="M27 874q90 66 134 140.5t48 128.5q-44 8 -76.5 43t-32.5 78q0 50 37.5 85t87.5 35q57 0 95 -42t38 -117q0 -62 -27 -130t-96.5 -144.5t-171.5 -131.5z" />
<glyph unicode="&#x201a;" horiz-adv-x="428" d="M4 -254q94 70 139 137t47 115q-43 8 -73.5 43t-30.5 80q0 49 36.5 84t86.5 35q57 0 95 -42.5t38 -117.5q0 -96 -72 -201t-227 -188z" />
<glyph unicode="&#x201c;" horiz-adv-x="819" d="M66 1004q0 45 16 95t49 104.5t93 108.5t138 95l37 -55q-91 -66 -135.5 -141t-46.5 -128q44 -8 75.5 -42.5t31.5 -77.5q0 -50 -36.5 -85.5t-86.5 -35.5q-58 0 -96.5 42.5t-38.5 119.5zM459 1004q0 62 27 129t97 143.5t173 130.5l37 -55q-91 -66 -136 -141t-47 -128 q44 -8 75.5 -42.5t31.5 -77.5q0 -50 -36.5 -85.5t-86.5 -35.5q-57 0 -96 43t-39 119z" />
<glyph unicode="&#x201d;" horiz-adv-x="819" d="M27 874q90 66 134 140.5t48 128.5q-44 8 -76.5 43t-32.5 78q0 50 37.5 85t87.5 35q57 0 95 -42t38 -117q0 -62 -27 -130t-96.5 -144.5t-171.5 -131.5zM420 874q91 66 135.5 141t46.5 128q-43 8 -74.5 42.5t-31.5 78.5q0 50 36 85t86 35q57 0 96.5 -42t39.5 -117 q0 -62 -27 -130t-97 -144.5t-173 -131.5z" />
<glyph unicode="&#x201e;" horiz-adv-x="823" d="M8 -250q91 69 134.5 134.5t47.5 113.5q-43 8 -73.5 41.5t-30.5 77.5q0 47 36 81.5t85 34.5q55 0 92 -41.5t37 -113.5q0 -95 -69 -195t-222 -186zM403 -250q91 69 135.5 134.5t47.5 113.5q-44 8 -74.5 42t-30.5 77q0 47 36 81.5t85 34.5q55 0 92 -41.5t37 -113.5 q0 -95 -69 -195t-222 -186z" />
<glyph unicode="&#x2022;" horiz-adv-x="591" d="M96 555q0 87 57.5 147t141.5 60t141.5 -60t57.5 -147q0 -85 -57.5 -144t-141.5 -59t-141.5 59t-57.5 144z" />
<glyph unicode="&#x2026;" horiz-adv-x="1269" d="M92 109q0 53 35.5 88.5t87.5 35.5t87.5 -35.5t35.5 -88.5t-35.5 -89t-87.5 -36t-87.5 36t-35.5 89zM512 109q0 53 35.5 88.5t87.5 35.5t87.5 -35.5t35.5 -88.5t-35.5 -89t-87.5 -36t-87.5 36t-35.5 89zM934 109q0 53 34.5 88.5t86.5 35.5t87.5 -35.5t35.5 -88.5 t-35.5 -89t-87.5 -36t-86.5 36t-34.5 89z" />
<glyph unicode="&#x202f;" horiz-adv-x="367" />
<glyph unicode="&#x2039;" horiz-adv-x="602" d="M61 563l353 344l88 -84l-254 -260l254 -260l-88 -84z" />
<glyph unicode="&#x203a;" horiz-adv-x="602" d="M100 303l254 260l-254 260l88 84l353 -344l-353 -344z" />
<glyph unicode="&#x205f;" horiz-adv-x="459" />
<glyph unicode="&#x20ac;" horiz-adv-x="1218" d="M86 332v112h125q-4 23 -4 72t4 74h-125v112h150q55 161 191 258t304 97q164 0 277.5 -83t113.5 -183q0 -50 -32 -82.5t-76 -32.5q-40 0 -67 27t-27 67q0 25 11.5 46t24.5 28q-22 34 -82 61t-145 27q-118 0 -210.5 -63.5t-139.5 -168.5h375v-110h-406q-6 -38 -6 -72 q0 -36 6 -74h406v-110h-373q47 -103 140 -165.5t214 -62.5q171 0 307 136l84 -97q-76 -79 -178.5 -121t-212.5 -42q-181 0 -313 96t-186 254h-150z" />
<glyph unicode="&#x2122;" horiz-adv-x="1255" d="M27 1194v154h479v-154h-80v80h-117v-356h74v-78h-236v78h76v356h-119v-80h-77zM563 840v78h72l16 352h-73v78h178l139 -310l137 310h180v-78h-75l16 -352h72v-78h-217v78h63l-12 309l-146 -318h-41l-147 318l-10 -309h63v-78h-215z" />
<glyph unicode="&#x25fc;" horiz-adv-x="870" d="M0 0v870h870v-870h-870z" />
</font>
</defs>
</svg>
